<svg xmlns="http://www.w3.org/2000/svg" width="5184" viewBox="0 0 5184 2592" height="2592" version="1.0"><defs><clipPath id="a"><path d="M 1 0 L 5183 0 L 5183 2591 L 1 2591 Z M 1 0"/></clipPath><clipPath id="b"><path d="M 2503 403.136719 L 2681 403.136719 L 2681 581 L 2503 581 Z M 2503 403.136719"/></clipPath><clipPath id="c"><path d="M 2097.441406 1251 L 3086.308594 1251 L 3086.308594 1411 L 2097.441406 1411 Z M 2097.441406 1251"/></clipPath><clipPath id="d"><path d="M 2097.441406 1251 L 2239 1251 L 2239 1411 L 2097.441406 1411 Z M 2097.441406 1251"/></clipPath></defs><g clip-path="url(#a)"><path fill="#FFF" d="M 1 0 L 5183 0 L 5183 2598.496094 L 1 2598.496094 Z M 1 0"/></g><path fill="#FFF" d="M 1 0 L 5183 0 L 5183 2591 L 1 2591 Z M 1 0"/><path fill="#032A3D" d="M 1 0 L 5183 0 L 5183 2591 L 1 2591 Z M 1 0"/><path fill="#F5AF50" d="M 2591.875 1287.101562 C 2523.71875 1287.101562 2468.265625 1342.570312 2468.265625 1410.757812 C 2468.265625 1478.925781 2523.71875 1534.394531 2591.875 1534.394531 C 2660.035156 1534.394531 2715.488281 1478.925781 2715.488281 1410.757812 C 2715.488281 1342.570312 2660.035156 1287.101562 2591.875 1287.101562 Z M 2591.875 1287.101562"/><path fill="#F4A63D" d="M 2644.847656 1516.722656 C 2576.691406 1516.722656 2521.238281 1461.265625 2521.238281 1393.078125 C 2521.238281 1348.53125 2544.917969 1309.417969 2580.34375 1287.664062 C 2517.574219 1293.496094 2468.265625 1346.460938 2468.265625 1410.757812 C 2468.265625 1478.925781 2523.71875 1534.394531 2591.875 1534.394531 C 2615.5 1534.394531 2637.585938 1527.71875 2656.382812 1516.164062 C 2652.585938 1516.519531 2648.738281 1516.722656 2644.847656 1516.722656 Z M 2644.847656 1516.722656"/><g clip-path="url(#b)"><path fill="#F4DC50" d="M 2503.585938 492.253906 C 2503.585938 443.480469 2543.117188 403.9375 2591.875 403.9375 C 2640.636719 403.9375 2680.167969 443.480469 2680.167969 492.253906 C 2680.167969 541.027344 2640.636719 580.570312 2591.875 580.570312 C 2543.117188 580.570312 2503.585938 541.027344 2503.585938 492.253906 Z M 2591.875 527.582031 C 2611.375 527.582031 2627.195312 511.765625 2627.195312 492.253906 C 2627.195312 472.742188 2611.375 456.925781 2591.875 456.925781 C 2572.367188 456.925781 2556.558594 472.742188 2556.558594 492.253906 C 2556.558594 511.765625 2572.367188 527.582031 2591.875 527.582031 Z M 2591.875 527.582031"/></g><path fill="#F4DC50" d="M 3022.320312 1270.738281 C 3021.910156 1270.566406 2980.664062 1253.101562 2939.945312 1197.082031 C 2901.988281 1144.894531 2856.75 1047.648438 2856.75 880.847656 C 2856.75 772.210938 2826.691406 688.433594 2767.402344 631.820312 C 2704.601562 571.859375 2630.472656 562.921875 2591.875 562.921875 C 2553.269531 562.921875 2479.152344 571.859375 2416.339844 631.820312 C 2357.058594 688.433594 2327 772.210938 2327 880.847656 C 2327 1047.648438 2281.753906 1144.894531 2243.808594 1197.082031 C 2203.089844 1253.101562 2161.84375 1270.566406 2161.507812 1270.703125 C 2153.660156 1273.84375 2149.136719 1282.121094 2150.730469 1290.445312 C 2152.335938 1298.757812 2159.609375 1304.761719 2168.070312 1304.761719 L 3015.671875 1304.761719 C 3024.097656 1304.761719 3031.320312 1298.789062 3032.957031 1290.519531 C 3034.597656 1282.25 3030.113281 1273.949219 3022.320312 1270.738281 Z M 3022.320312 1270.738281"/><path fill="#F2D83D" d="M 2221.367188 1290.445312 C 2219.761719 1282.121094 2224.289062 1273.84375 2232.144531 1270.714844 C 2232.46875 1270.566406 2273.726562 1253.101562 2314.445312 1197.082031 C 2352.394531 1144.894531 2397.628906 1047.660156 2397.628906 880.847656 C 2397.628906 772.210938 2427.6875 688.433594 2486.976562 631.820312 C 2533.902344 587.015625 2587.15625 570.695312 2627.195312 565.304688 C 2613.660156 563.492188 2601.628906 562.921875 2591.875 562.921875 C 2553.269531 562.921875 2479.152344 571.859375 2416.339844 631.820312 C 2357.058594 688.433594 2327 772.210938 2327 880.847656 C 2327 1047.648438 2281.753906 1144.894531 2243.808594 1197.082031 C 2203.089844 1253.101562 2161.84375 1270.566406 2161.507812 1270.703125 C 2153.660156 1273.84375 2149.136719 1282.121094 2150.730469 1290.445312 C 2152.335938 1298.757812 2159.609375 1304.761719 2168.070312 1304.761719 L 2238.710938 1304.761719 C 2230.238281 1304.761719 2222.972656 1298.757812 2221.367188 1290.445312 Z M 2221.367188 1290.445312"/><g clip-path="url(#c)"><path fill="#F6E477" d="M 3033.335938 1251.773438 L 2150.417969 1251.773438 C 2121.199219 1251.773438 2097.445312 1275.546875 2097.445312 1304.761719 L 2097.445312 1357.769531 C 2097.445312 1386.976562 2121.199219 1410.757812 2150.417969 1410.757812 L 3033.335938 1410.757812 C 3062.542969 1410.757812 3086.308594 1386.976562 3086.308594 1357.769531 L 3086.308594 1304.761719 C 3086.308594 1275.546875 3062.542969 1251.773438 3033.335938 1251.773438 Z M 3033.335938 1251.773438"/></g><g clip-path="url(#d)"><path fill="#F4DC50" d="M 2185.734375 1357.769531 L 2185.734375 1304.761719 C 2185.734375 1275.546875 2209.492188 1251.773438 2238.710938 1251.773438 L 2150.417969 1251.773438 C 2121.199219 1251.773438 2097.445312 1275.546875 2097.445312 1304.761719 L 2097.445312 1357.769531 C 2097.445312 1386.976562 2121.199219 1410.757812 2150.417969 1410.757812 L 2238.710938 1410.757812 C 2209.492188 1410.757812 2185.734375 1386.976562 2185.734375 1357.769531 Z M 2185.734375 1357.769531"/></g><path fill="#FB675F" d="M 2839.085938 562.921875 C 2751.464844 562.921875 2680.167969 634.226562 2680.167969 721.875 C 2680.167969 809.535156 2751.464844 880.847656 2839.085938 880.847656 C 2926.722656 880.847656 2998.015625 809.535156 2998.015625 721.875 C 2998.015625 634.226562 2926.722656 562.921875 2839.085938 562.921875 Z M 2839.085938 562.921875"/><path fill="#FA544B" d="M 2892.070312 845.519531 C 2804.4375 845.519531 2733.140625 774.203125 2733.140625 686.546875 C 2733.140625 642.925781 2750.804688 603.359375 2779.34375 574.597656 C 2721.242188 598.273438 2680.167969 655.355469 2680.167969 721.875 C 2680.167969 809.535156 2751.464844 880.847656 2839.085938 880.847656 C 2883.105469 880.847656 2923.003906 862.84375 2951.8125 833.824219 C 2933.351562 841.335938 2913.195312 845.519531 2892.070312 845.519531 Z M 2892.070312 845.519531"/><path fill="#F4F5F7" d="M 2839.085938 792.53125 C 2829.34375 792.53125 2821.433594 784.628906 2821.433594 774.863281 L 2821.433594 711.523438 L 2816.257812 716.699219 C 2809.363281 723.597656 2798.183594 723.597656 2791.289062 716.699219 C 2784.390625 709.800781 2784.390625 698.621094 2791.289062 691.71875 L 2826.605469 656.414062 C 2831.660156 651.355469 2839.25 649.828125 2845.855469 652.566406 C 2852.453125 655.304688 2856.75 661.75 2856.75 668.886719 L 2856.75 774.863281 C 2856.75 784.628906 2848.839844 792.53125 2839.085938 792.53125 Z M 2839.085938 792.53125"/></svg>