<svg xmlns="http://www.w3.org/2000/svg" width="5184" viewBox="0 0 5184 2592" height="2592" version="1.0"><defs><clipPath id="a"><path d="M 1 0 L 5183 0 L 5183 2591 L 1 2591 Z M 1 0"/></clipPath><clipPath id="b"><path d="M 2488 259.101562 L 2534 259.101562 L 2534 407 L 2488 407 Z M 2488 259.101562"/></clipPath></defs><g clip-path="url(#a)"><path fill="#FFF" d="M 1 0 L 5183 0 L 5183 5189.496094 L 1 5189.496094 Z M 1 0"/></g><path fill="#FFF" d="M 1 0 L 5183 0 L 5183 2591 L 1 2591 Z M 1 0"/><path fill="#032A3D" d="M 1 0 L 5183 0 L 5183 2591 L 1 2591 Z M 1 0"/><path fill="#639EC6" d="M 2429.867188 1289.652344 C 2419.820312 1279.8125 2420.4375 1263.160156 2431.605469 1254.609375 C 2448.292969 1241.828125 2459.976562 1222.582031 2462.574219 1200.046875 C 2465.160156 1177.59375 2458.199219 1156.261719 2444.953125 1140.027344 L 2484.660156 1114.652344 C 2503.4375 1139.765625 2513.054688 1171.804688 2509.183594 1205.417969 C 2505.101562 1240.851562 2486.835938 1271.1875 2460.710938 1291.441406 C 2451.433594 1298.628906 2438.253906 1297.871094 2429.867188 1289.652344 Z M 2429.867188 1289.652344"/><path fill="#639EC6" d="M 2197.058594 1368.578125 L 2449.289062 1510.886719 C 2460.273438 1517.28125 2474.183594 1515.476562 2483.171875 1506.488281 L 2506.980469 1482.675781 C 2517.917969 1471.742188 2517.917969 1454.015625 2506.980469 1443.082031 L 2314.769531 1250.871094 Z M 2197.058594 1368.578125"/><path fill="#FEAA3A" d="M 2374.261719 516.855469 L 2397.808594 493.308594 L 2632.390625 727.882812 L 2866.96875 962.457031 L 2843.417969 986.007812 C 2843.417969 986.007812 2593.511719 1036.867188 2395.414062 1202.960938 C 2378.242188 1217.363281 2352.960938 1216.382812 2337.113281 1200.535156 L 2248.425781 1111.847656 L 2159.730469 1023.15625 C 2143.886719 1007.308594 2142.90625 982.03125 2157.304688 964.859375 C 2323.398438 766.757812 2374.261719 516.855469 2374.261719 516.855469 Z M 2374.261719 516.855469"/><path fill="#92BEE2" d="M 1979.523438 1146.164062 L 2094.789062 1030.898438 L 2212.078125 1148.183594 L 2329.371094 1265.472656 L 2214.101562 1380.738281 C 2177.4375 1417.398438 2118 1417.398438 2081.339844 1380.738281 L 2030.429688 1329.832031 L 1979.527344 1278.929688 C 1942.863281 1242.265625 1942.863281 1182.824219 1979.523438 1146.164062 Z M 1979.523438 1146.164062"/><path fill="#639EC6" d="M 2076.867188 1251.035156 L 2133.28125 1194.625 C 2140.269531 1187.632812 2140.269531 1176.296875 2133.28125 1169.308594 C 2126.292969 1162.320312 2114.957031 1162.320312 2107.964844 1169.308594 L 2051.554688 1225.71875 C 2044.5625 1232.710938 2044.5625 1244.046875 2051.554688 1251.035156 C 2058.542969 1258.023438 2069.878906 1258.023438 2076.867188 1251.035156 Z M 2076.867188 1251.035156"/><path fill="#FD6041" d="M 2831.296875 545.425781 L 2903.03125 473.691406 C 2911.921875 464.804688 2911.921875 450.394531 2903.03125 441.503906 C 2894.144531 432.613281 2879.730469 432.613281 2870.84375 441.503906 L 2799.105469 513.238281 C 2790.21875 522.125 2790.21875 536.539062 2799.105469 545.425781 C 2807.996094 554.316406 2822.40625 554.316406 2831.296875 545.425781 Z M 2831.296875 545.425781"/><g clip-path="url(#b)"><path fill="#FD6041" d="M 2533.910156 383.332031 L 2533.910156 281.882812 C 2533.910156 269.3125 2523.714844 259.125 2511.148438 259.125 C 2498.574219 259.125 2488.386719 269.3125 2488.386719 281.882812 L 2488.386719 383.332031 C 2488.386719 395.90625 2498.578125 406.09375 2511.148438 406.09375 C 2523.714844 406.097656 2533.910156 395.90625 2533.910156 383.332031 Z M 2533.910156 383.332031"/></g><path fill="#FD6041" d="M 2962.691406 812.113281 L 3064.144531 812.113281 C 3076.714844 812.113281 3086.90625 822.304688 3086.90625 834.875 C 3086.90625 847.445312 3076.714844 857.636719 3064.144531 857.636719 L 2962.691406 857.636719 C 2950.121094 857.636719 2939.929688 847.445312 2939.929688 834.875 C 2939.929688 822.304688 2950.125 812.113281 2962.691406 812.113281 Z M 2962.691406 812.113281"/><path fill="#639EC6" d="M 2134.539062 1308.707031 L 2190.953125 1252.292969 C 2197.941406 1245.304688 2197.941406 1233.96875 2190.953125 1226.980469 C 2183.964844 1219.988281 2172.628906 1219.988281 2165.636719 1226.980469 L 2109.226562 1283.390625 C 2102.234375 1290.378906 2102.234375 1301.71875 2109.226562 1308.707031 C 2116.214844 1315.695312 2127.550781 1315.695312 2134.539062 1308.707031 Z M 2134.539062 1308.707031"/><path fill="#EF8535" d="M 2830.4375 996.253906 L 2364.015625 529.832031 C 2351.007812 516.824219 2351.007812 495.742188 2364.015625 482.734375 C 2377.019531 469.726562 2398.105469 469.726562 2411.109375 482.734375 L 2877.539062 949.15625 C 2890.542969 962.160156 2890.542969 983.25 2877.539062 996.253906 C 2864.53125 1009.257812 2843.445312 1009.257812 2830.4375 996.253906 Z M 2830.4375 996.253906"/><g fill="#FFF"><g><g><path d="M 154.421875 -61.546875 C 154.421875 -48.972656 151.234375 -37.8125 144.859375 -28.0625 C 138.484375 -18.320312 129.285156 -10.75 117.265625 -5.34375 C 105.253906 0.0625 91.164062 2.765625 75 2.765625 C 61.5 2.765625 50.175781 1.820312 41.03125 -0.0625 C 31.882812 -1.957031 22.363281 -5.265625 12.46875 -9.984375 L 12.46875 -58.78125 C 22.914062 -53.414062 33.773438 -49.226562 45.046875 -46.21875 C 56.328125 -43.21875 66.675781 -41.71875 76.09375 -41.71875 C 84.226562 -41.71875 90.191406 -43.128906 93.984375 -45.953125 C 97.773438 -48.773438 99.671875 -52.398438 99.671875 -56.828125 C 99.671875 -59.597656 98.90625 -62.023438 97.375 -64.109375 C 95.851562 -66.191406 93.40625 -68.296875 90.03125 -70.421875 C 86.65625 -72.546875 77.671875 -76.890625 63.078125 -83.453125 C 49.859375 -89.453125 39.941406 -95.269531 33.328125 -100.90625 C 26.722656 -106.550781 21.828125 -113.019531 18.640625 -120.3125 C 15.453125 -127.613281 13.859375 -136.257812 13.859375 -146.25 C 13.859375 -164.914062 20.648438 -179.46875 34.234375 -189.90625 C 47.816406 -200.351562 66.484375 -205.578125 90.234375 -205.578125 C 111.210938 -205.578125 132.609375 -200.722656 154.421875 -191.015625 L 137.640625 -148.734375 C 118.703125 -157.421875 102.347656 -161.765625 88.578125 -161.765625 C 81.460938 -161.765625 76.285156 -160.515625 73.046875 -158.015625 C 69.816406 -155.523438 68.203125 -152.429688 68.203125 -148.734375 C 68.203125 -144.765625 70.253906 -141.207031 74.359375 -138.0625 C 78.472656 -134.914062 89.632812 -129.1875 107.84375 -120.875 C 125.3125 -113.019531 137.441406 -104.585938 144.234375 -95.578125 C 151.023438 -86.566406 154.421875 -75.222656 154.421875 -61.546875 Z M 154.421875 -61.546875" transform="translate(1364.343 1941.4)"/></g></g><g><g><path d="M 73.1875 0 L 18.984375 0 L 18.984375 -157.0625 L 73.1875 -157.0625 Z M 17.609375 -196.140625 C 17.609375 -204.273438 19.867188 -210.328125 24.390625 -214.296875 C 28.921875 -218.273438 36.222656 -220.265625 46.296875 -220.265625 C 56.367188 -220.265625 63.710938 -218.226562 68.328125 -214.15625 C 72.953125 -210.09375 75.265625 -204.085938 75.265625 -196.140625 C 75.265625 -180.242188 65.609375 -172.296875 46.296875 -172.296875 C 27.171875 -172.296875 17.609375 -180.242188 17.609375 -196.140625 Z M 17.609375 -196.140625" transform="translate(1528.187 1941.4)"/></g></g><g><g><path d="M 117.828125 0 L 117.828125 -85.671875 C 117.828125 -96.109375 116.320312 -103.984375 113.3125 -109.296875 C 110.3125 -114.609375 105.484375 -117.265625 98.828125 -117.265625 C 89.679688 -117.265625 83.070312 -113.613281 79 -106.3125 C 74.9375 -99.019531 72.90625 -86.5 72.90625 -68.75 L 72.90625 0 L 18.71875 0 L 18.71875 -157.0625 L 59.609375 -157.0625 L 66.390625 -137.640625 L 69.59375 -137.640625 C 74.207031 -145.035156 80.601562 -150.582031 88.78125 -154.28125 C 96.957031 -157.976562 106.363281 -159.828125 117 -159.828125 C 134.363281 -159.828125 147.875 -154.789062 157.53125 -144.71875 C 167.195312 -134.644531 172.03125 -120.457031 172.03125 -102.15625 L 172.03125 0 Z M 117.828125 0" transform="translate(1620.505 1941.4)"/></g></g><g><g><path d="M 90.234375 2.765625 C 64.546875 2.765625 45.070312 -4.160156 31.8125 -18.015625 C 18.550781 -31.878906 11.921875 -51.796875 11.921875 -77.765625 C 11.921875 -103.828125 19.082031 -124.019531 33.40625 -138.34375 C 47.726562 -152.664062 68.101562 -159.828125 94.53125 -159.828125 C 112.738281 -159.828125 129.882812 -155.851562 145.96875 -147.90625 L 130.03125 -107.84375 C 123.46875 -110.707031 117.410156 -112.992188 111.859375 -114.703125 C 106.316406 -116.410156 100.539062 -117.265625 94.53125 -117.265625 C 85.757812 -117.265625 78.96875 -113.84375 74.15625 -107 C 69.351562 -100.164062 66.953125 -90.515625 66.953125 -78.046875 C 66.953125 -52.910156 76.238281 -40.34375 94.8125 -40.34375 C 110.707031 -40.34375 125.957031 -44.960938 140.5625 -54.203125 L 140.5625 -11.09375 C 126.601562 -1.851562 109.828125 2.765625 90.234375 2.765625 Z M 90.234375 2.765625" transform="translate(1884.43 1941.4)"/></g></g><g><g><path d="M 168.703125 -78.875 C 168.703125 -53.1875 161.789062 -33.15625 147.96875 -18.78125 C 134.15625 -4.414062 114.820312 2.765625 89.96875 2.765625 C 66.125 2.765625 47.15625 -4.578125 33.0625 -19.265625 C 18.96875 -33.960938 11.921875 -53.832031 11.921875 -78.875 C 11.921875 -104.46875 18.828125 -124.359375 32.640625 -138.546875 C 46.460938 -152.734375 65.847656 -159.828125 90.796875 -159.828125 C 106.222656 -159.828125 119.851562 -156.546875 131.6875 -149.984375 C 143.519531 -143.421875 152.644531 -134.015625 159.0625 -121.765625 C 165.488281 -109.523438 168.703125 -95.226562 168.703125 -78.875 Z M 66.953125 -78.875 C 66.953125 -65.382812 68.753906 -55.101562 72.359375 -48.03125 C 75.960938 -40.957031 82.015625 -37.421875 90.515625 -37.421875 C 98.921875 -37.421875 104.859375 -40.957031 108.328125 -48.03125 C 111.796875 -55.101562 113.53125 -65.382812 113.53125 -78.875 C 113.53125 -92.269531 111.773438 -102.382812 108.265625 -109.21875 C 104.753906 -116.0625 98.742188 -119.484375 90.234375 -119.484375 C 81.921875 -119.484375 75.960938 -116.085938 72.359375 -109.296875 C 68.753906 -102.503906 66.953125 -92.363281 66.953125 -78.875 Z M 66.953125 -78.875" transform="translate(2037.462 1941.4)"/></g></g><g><g><path d="M 211.53125 0 L 211.53125 -85.390625 C 211.53125 -96.015625 210.070312 -103.984375 207.15625 -109.296875 C 204.25 -114.609375 199.65625 -117.265625 193.375 -117.265625 C 185.050781 -117.265625 178.945312 -113.707031 175.0625 -106.59375 C 171.1875 -99.476562 169.25 -88.34375 169.25 -73.1875 L 169.25 0 L 114.921875 0 L 114.921875 -85.390625 C 114.921875 -96.015625 113.53125 -103.984375 110.75 -109.296875 C 107.976562 -114.609375 103.5 -117.265625 97.3125 -117.265625 C 88.8125 -117.265625 82.617188 -113.472656 78.734375 -105.890625 C 74.847656 -98.316406 72.90625 -85.9375 72.90625 -68.75 L 72.90625 0 L 18.71875 0 L 18.71875 -157.0625 L 59.609375 -157.0625 L 66.390625 -137.640625 L 69.59375 -137.640625 C 73.75 -144.847656 79.773438 -150.347656 87.671875 -154.140625 C 95.578125 -157.929688 104.566406 -159.828125 114.640625 -159.828125 C 137.273438 -159.828125 153.171875 -152.941406 162.328125 -139.171875 L 166.625 -139.171875 C 171.050781 -145.640625 177.21875 -150.695312 185.125 -154.34375 C 193.03125 -158 201.738281 -159.828125 211.25 -159.828125 C 229.820312 -159.828125 243.546875 -155.066406 252.421875 -145.546875 C 261.296875 -136.023438 265.734375 -121.5625 265.734375 -102.15625 L 265.734375 0 Z M 211.53125 0" transform="translate(2218.356 1941.4)"/></g></g><g><g><path d="M 130.578125 0 L 123.78125 -19.546875 L 120.59375 -19.546875 C 116.070312 -12.335938 109.765625 -6.816406 101.671875 -2.984375 C 93.585938 0.847656 84.09375 2.765625 73.1875 2.765625 C 55.90625 2.765625 42.457031 -2.242188 32.84375 -12.265625 C 23.238281 -22.296875 18.4375 -36.457031 18.4375 -54.75 L 18.4375 -157.0625 L 72.640625 -157.0625 L 72.640625 -71.25 C 72.640625 -60.988281 74.09375 -53.222656 77 -47.953125 C 79.914062 -42.691406 84.695312 -40.0625 91.34375 -40.0625 C 100.675781 -40.0625 107.328125 -43.734375 111.296875 -51.078125 C 115.273438 -58.421875 117.265625 -70.828125 117.265625 -88.296875 L 117.265625 -157.0625 L 171.46875 -157.0625 L 171.46875 0 Z M 130.578125 0" transform="translate(2502.241 1941.4)"/></g></g><g><g><path d="M 117.828125 0 L 117.828125 -85.671875 C 117.828125 -96.109375 116.320312 -103.984375 113.3125 -109.296875 C 110.3125 -114.609375 105.484375 -117.265625 98.828125 -117.265625 C 89.679688 -117.265625 83.070312 -113.613281 79 -106.3125 C 74.9375 -99.019531 72.90625 -86.5 72.90625 -68.75 L 72.90625 0 L 18.71875 0 L 18.71875 -157.0625 L 59.609375 -157.0625 L 66.390625 -137.640625 L 69.59375 -137.640625 C 74.207031 -145.035156 80.601562 -150.582031 88.78125 -154.28125 C 96.957031 -157.976562 106.363281 -159.828125 117 -159.828125 C 134.363281 -159.828125 147.875 -154.789062 157.53125 -144.71875 C 167.195312 -134.644531 172.03125 -120.457031 172.03125 -102.15625 L 172.03125 0 Z M 117.828125 0" transform="translate(2692.422 1941.4)"/></g></g><g><g><path d="M 73.1875 0 L 18.984375 0 L 18.984375 -157.0625 L 73.1875 -157.0625 Z M 17.609375 -196.140625 C 17.609375 -204.273438 19.867188 -210.328125 24.390625 -214.296875 C 28.921875 -218.273438 36.222656 -220.265625 46.296875 -220.265625 C 56.367188 -220.265625 63.710938 -218.226562 68.328125 -214.15625 C 72.953125 -210.09375 75.265625 -204.085938 75.265625 -196.140625 C 75.265625 -180.242188 65.609375 -172.296875 46.296875 -172.296875 C 27.171875 -172.296875 17.609375 -180.242188 17.609375 -196.140625 Z M 17.609375 -196.140625" transform="translate(2882.603 1941.4)"/></g></g><g><g><path d="M 90.234375 2.765625 C 64.546875 2.765625 45.070312 -4.160156 31.8125 -18.015625 C 18.550781 -31.878906 11.921875 -51.796875 11.921875 -77.765625 C 11.921875 -103.828125 19.082031 -124.019531 33.40625 -138.34375 C 47.726562 -152.664062 68.101562 -159.828125 94.53125 -159.828125 C 112.738281 -159.828125 129.882812 -155.851562 145.96875 -147.90625 L 130.03125 -107.84375 C 123.46875 -110.707031 117.410156 -112.992188 111.859375 -114.703125 C 106.316406 -116.410156 100.539062 -117.265625 94.53125 -117.265625 C 85.757812 -117.265625 78.96875 -113.84375 74.15625 -107 C 69.351562 -100.164062 66.953125 -90.515625 66.953125 -78.046875 C 66.953125 -52.910156 76.238281 -40.34375 94.8125 -40.34375 C 110.707031 -40.34375 125.957031 -44.960938 140.5625 -54.203125 L 140.5625 -11.09375 C 126.601562 -1.851562 109.828125 2.765625 90.234375 2.765625 Z M 90.234375 2.765625" transform="translate(2974.921 1941.4)"/></g></g><g><g><path d="M 121.15625 0 L 110.75 -20.796875 L 109.640625 -20.796875 C 102.347656 -11.734375 94.910156 -5.539062 87.328125 -2.21875 C 79.753906 1.101562 69.957031 2.765625 57.9375 2.765625 C 43.15625 2.765625 31.507812 -1.664062 23 -10.53125 C 14.5 -19.40625 10.25 -31.882812 10.25 -47.96875 C 10.25 -64.6875 16.070312 -77.132812 27.71875 -85.3125 C 39.363281 -93.5 56.226562 -98.097656 78.3125 -99.109375 L 104.515625 -99.9375 L 104.515625 -102.15625 C 104.515625 -115.09375 98.140625 -121.5625 85.390625 -121.5625 C 73.929688 -121.5625 59.375 -117.679688 41.71875 -109.921875 L 26.0625 -145.6875 C 44.351562 -155.113281 67.457031 -159.828125 95.375 -159.828125 C 115.519531 -159.828125 131.113281 -154.835938 142.15625 -144.859375 C 153.195312 -134.878906 158.71875 -120.925781 158.71875 -103 L 158.71875 0 Z M 80.953125 -35.484375 C 87.515625 -35.484375 93.128906 -37.5625 97.796875 -41.71875 C 102.460938 -45.882812 104.796875 -51.289062 104.796875 -57.9375 L 104.796875 -70.140625 L 92.3125 -69.59375 C 74.476562 -68.9375 65.5625 -62.375 65.5625 -49.90625 C 65.5625 -40.289062 70.691406 -35.484375 80.953125 -35.484375 Z M 80.953125 -35.484375" transform="translate(3127.953 1941.4)"/></g></g><g><g><path d="M 67.5 2.765625 C 56.320312 2.765625 46.550781 -0.421875 38.1875 -6.796875 C 29.820312 -13.171875 23.351562 -22.546875 18.78125 -34.921875 C 14.207031 -47.304688 11.921875 -61.769531 11.921875 -78.3125 C 11.921875 -103.820312 17.046875 -123.785156 27.296875 -138.203125 C 37.554688 -152.617188 51.65625 -159.828125 69.59375 -159.828125 C 78.363281 -159.828125 86.050781 -158.070312 92.65625 -154.5625 C 99.269531 -151.050781 105.300781 -145.132812 110.75 -136.8125 L 111.859375 -136.8125 C 110.109375 -149.101562 109.234375 -161.394531 109.234375 -173.6875 L 109.234375 -215.6875 L 163.84375 -215.6875 L 163.84375 0 L 122.953125 0 L 111.3125 -19.828125 L 109.234375 -19.828125 C 99.898438 -4.765625 85.988281 2.765625 67.5 2.765625 Z M 89.6875 -40.0625 C 98.375 -40.0625 104.492188 -42.785156 108.046875 -48.234375 C 111.609375 -53.691406 113.53125 -62.101562 113.8125 -73.46875 L 113.8125 -77.765625 C 113.8125 -91.628906 111.820312 -101.492188 107.84375 -107.359375 C 103.875 -113.222656 97.632812 -116.15625 89.125 -116.15625 C 82.007812 -116.15625 76.488281 -112.804688 72.5625 -106.109375 C 68.632812 -99.410156 66.671875 -89.867188 66.671875 -77.484375 C 66.671875 -65.285156 68.65625 -56 72.625 -49.625 C 76.601562 -43.25 82.289062 -40.0625 89.6875 -40.0625 Z M 89.6875 -40.0625" transform="translate(3304.827 1941.4)"/></g></g><g><g><path d="M 168.703125 -78.875 C 168.703125 -53.1875 161.789062 -33.15625 147.96875 -18.78125 C 134.15625 -4.414062 114.820312 2.765625 89.96875 2.765625 C 66.125 2.765625 47.15625 -4.578125 33.0625 -19.265625 C 18.96875 -33.960938 11.921875 -53.832031 11.921875 -78.875 C 11.921875 -104.46875 18.828125 -124.359375 32.640625 -138.546875 C 46.460938 -152.734375 65.847656 -159.828125 90.796875 -159.828125 C 106.222656 -159.828125 119.851562 -156.546875 131.6875 -149.984375 C 143.519531 -143.421875 152.644531 -134.015625 159.0625 -121.765625 C 165.488281 -109.523438 168.703125 -95.226562 168.703125 -78.875 Z M 66.953125 -78.875 C 66.953125 -65.382812 68.753906 -55.101562 72.359375 -48.03125 C 75.960938 -40.957031 82.015625 -37.421875 90.515625 -37.421875 C 98.921875 -37.421875 104.859375 -40.957031 108.328125 -48.03125 C 111.796875 -55.101562 113.53125 -65.382812 113.53125 -78.875 C 113.53125 -92.269531 111.773438 -102.382812 108.265625 -109.21875 C 104.753906 -116.0625 98.742188 -119.484375 90.234375 -119.484375 C 81.921875 -119.484375 75.960938 -116.085938 72.359375 -109.296875 C 68.753906 -102.503906 66.953125 -92.363281 66.953125 -78.875 Z M 66.953125 -78.875" transform="translate(3487.385 1941.4)"/></g></g><g><g><path d="M 140 -48.234375 C 140 -31.421875 134.269531 -18.71875 122.8125 -10.125 C 111.351562 -1.53125 94.90625 2.765625 73.46875 2.765625 C 61.820312 2.765625 51.703125 2.140625 43.109375 0.890625 C 34.515625 -0.347656 25.734375 -2.628906 16.765625 -5.953125 L 16.765625 -49.34375 C 25.179688 -45.644531 34.398438 -42.59375 44.421875 -40.1875 C 54.453125 -37.789062 63.394531 -36.59375 71.25 -36.59375 C 82.988281 -36.59375 88.859375 -39.273438 88.859375 -44.640625 C 88.859375 -47.410156 87.21875 -49.878906 83.9375 -52.046875 C 80.65625 -54.222656 71.113281 -58.453125 55.3125 -64.734375 C 40.894531 -70.648438 30.820312 -77.375 25.09375 -84.90625 C 19.363281 -92.4375 16.5 -101.976562 16.5 -113.53125 C 16.5 -128.132812 22.132812 -139.5 33.40625 -147.625 C 44.675781 -155.757812 60.617188 -159.828125 81.234375 -159.828125 C 91.578125 -159.828125 101.300781 -158.691406 110.40625 -156.421875 C 119.507812 -154.160156 128.957031 -150.859375 138.75 -146.515625 L 124.0625 -111.59375 C 116.851562 -114.820312 109.226562 -117.566406 101.1875 -119.828125 C 93.144531 -122.097656 86.582031 -123.234375 81.5 -123.234375 C 72.632812 -123.234375 68.203125 -121.0625 68.203125 -116.71875 C 68.203125 -114.039062 69.75 -111.753906 72.84375 -109.859375 C 75.9375 -107.960938 84.878906 -104.101562 99.671875 -98.28125 C 110.660156 -93.75 118.859375 -89.3125 124.265625 -84.96875 C 129.671875 -80.625 133.644531 -75.519531 136.1875 -69.65625 C 138.726562 -63.789062 140 -56.648438 140 -48.234375 Z M 140 -48.234375" transform="translate(3668.278 1941.4)"/></g></g></g><g fill="#FFF"><g><g><path d="M 88.5625 0 L 74.171875 -36.765625 L 27.828125 -36.765625 L 13.59375 0 L 0 0 L 45.703125 -116.078125 L 57.015625 -116.078125 L 102.46875 0 Z M 69.984375 -48.859375 L 56.53125 -84.6875 C 54.789062 -89.21875 53 -94.78125 51.15625 -101.375 C 50 -96.3125 48.335938 -90.75 46.171875 -84.6875 L 32.578125 -48.859375 Z M 69.984375 -48.859375" transform="translate(1145.02 2243.406)"/></g></g><g><g><path d="M 26.25 -86.65625 L 26.25 -30.4375 C 26.25 -23.375 27.851562 -18.101562 31.0625 -14.625 C 34.28125 -11.144531 39.316406 -9.40625 46.171875 -9.40625 C 55.242188 -9.40625 61.875 -11.882812 66.0625 -16.84375 C 70.25 -21.800781 72.34375 -29.890625 72.34375 -41.109375 L 72.34375 -86.65625 L 85.46875 -86.65625 L 85.46875 0 L 74.640625 0 L 72.75 -11.625 L 72.03125 -11.625 C 69.34375 -7.351562 65.613281 -4.082031 60.84375 -1.8125 C 56.070312 0.445312 50.628906 1.578125 44.515625 1.578125 C 33.972656 1.578125 26.078125 -0.921875 20.828125 -5.921875 C 15.585938 -10.929688 12.96875 -18.945312 12.96875 -29.96875 L 12.96875 -86.65625 Z M 40.078125 -100.109375 C 42.609375 -103.367188 45.332031 -107.316406 48.25 -111.953125 C 51.175781 -116.597656 53.484375 -120.632812 55.171875 -124.0625 L 71.15625 -124.0625 L 71.15625 -122.40625 C 68.832031 -118.976562 65.375 -114.757812 60.78125 -109.75 C 56.195312 -104.738281 52.222656 -100.863281 48.859375 -98.125 L 40.078125 -98.125 Z M 40.078125 -100.109375" transform="translate(1247.497 2243.406)"/></g></g><g><g><path d="M 73.21875 0 L 73.21875 -56.0625 C 73.21875 -63.125 71.609375 -68.394531 68.390625 -71.875 C 65.179688 -75.351562 60.148438 -77.09375 53.296875 -77.09375 C 44.222656 -77.09375 37.578125 -74.640625 33.359375 -69.734375 C 29.148438 -64.835938 27.046875 -56.75 27.046875 -45.46875 L 27.046875 0 L 13.921875 0 L 13.921875 -86.65625 L 24.59375 -86.65625 L 26.71875 -74.796875 L 27.359375 -74.796875 C 30.046875 -79.066406 33.8125 -82.375 38.65625 -84.71875 C 43.507812 -87.070312 48.914062 -88.25 54.875 -88.25 C 65.3125 -88.25 73.164062 -85.726562 78.4375 -80.6875 C 83.707031 -75.65625 86.34375 -67.601562 86.34375 -56.53125 L 86.34375 0 Z M 73.21875 0" transform="translate(1346.89 2243.406)"/></g></g><g><g><path d="M 73.21875 0 L 73.21875 -56.0625 C 73.21875 -63.125 71.609375 -68.394531 68.390625 -71.875 C 65.179688 -75.351562 60.148438 -77.09375 53.296875 -77.09375 C 44.222656 -77.09375 37.578125 -74.640625 33.359375 -69.734375 C 29.148438 -64.835938 27.046875 -56.75 27.046875 -45.46875 L 27.046875 0 L 13.921875 0 L 13.921875 -86.65625 L 24.59375 -86.65625 L 26.71875 -74.796875 L 27.359375 -74.796875 C 30.046875 -79.066406 33.8125 -82.375 38.65625 -84.71875 C 43.507812 -87.070312 48.914062 -88.25 54.875 -88.25 C 65.3125 -88.25 73.164062 -85.726562 78.4375 -80.6875 C 83.707031 -75.65625 86.34375 -67.601562 86.34375 -56.53125 L 86.34375 0 Z M 73.21875 0" transform="translate(1488.347 2243.406)"/></g></g><g><g><path d="M 88.71875 -43.40625 C 88.71875 -29.28125 85.160156 -18.25 78.046875 -10.3125 C 70.929688 -2.382812 61.097656 1.578125 48.546875 1.578125 C 40.796875 1.578125 33.914062 -0.238281 27.90625 -3.875 C 21.894531 -7.507812 17.253906 -12.726562 13.984375 -19.53125 C 10.722656 -26.332031 9.09375 -34.289062 9.09375 -43.40625 C 9.09375 -57.53125 12.625 -68.535156 19.6875 -76.421875 C 26.75 -84.304688 36.554688 -88.25 49.109375 -88.25 C 61.234375 -88.25 70.863281 -84.210938 78 -76.140625 C 85.144531 -68.078125 88.71875 -57.164062 88.71875 -43.40625 Z M 22.6875 -43.40625 C 22.6875 -32.34375 24.898438 -23.910156 29.328125 -18.109375 C 33.765625 -12.304688 40.273438 -9.40625 48.859375 -9.40625 C 57.453125 -9.40625 63.976562 -12.289062 68.4375 -18.0625 C 72.894531 -23.832031 75.125 -32.28125 75.125 -43.40625 C 75.125 -54.425781 72.894531 -62.796875 68.4375 -68.515625 C 63.976562 -74.234375 57.398438 -77.09375 48.703125 -77.09375 C 40.109375 -77.09375 33.625 -74.269531 29.25 -68.625 C 24.875 -62.988281 22.6875 -54.582031 22.6875 -43.40625 Z M 22.6875 -43.40625" transform="translate(1587.74 2243.406)"/></g></g><g><g><path d="M 69.8125 -23.640625 C 69.8125 -15.578125 66.804688 -9.359375 60.796875 -4.984375 C 54.796875 -0.609375 46.363281 1.578125 35.5 1.578125 C 24.007812 1.578125 15.050781 -0.238281 8.625 -3.875 L 8.625 -16.046875 C 12.78125 -13.941406 17.242188 -12.28125 22.015625 -11.0625 C 26.785156 -9.851562 31.382812 -9.25 35.8125 -9.25 C 42.664062 -9.25 47.9375 -10.34375 51.625 -12.53125 C 55.320312 -14.71875 57.171875 -18.050781 57.171875 -22.53125 C 57.171875 -25.90625 55.707031 -28.789062 52.78125 -31.1875 C 49.851562 -33.59375 44.144531 -36.425781 35.65625 -39.6875 C 27.59375 -42.695312 21.859375 -45.320312 18.453125 -47.5625 C 15.054688 -49.800781 12.523438 -52.34375 10.859375 -55.1875 C 9.203125 -58.039062 8.375 -61.441406 8.375 -65.390625 C 8.375 -72.453125 11.25 -78.023438 17 -82.109375 C 22.75 -86.203125 30.628906 -88.25 40.640625 -88.25 C 49.972656 -88.25 59.09375 -86.347656 68 -82.546875 L 63.328125 -71.875 C 54.640625 -75.457031 46.757812 -77.25 39.6875 -77.25 C 33.46875 -77.25 28.773438 -76.273438 25.609375 -74.328125 C 22.453125 -72.378906 20.875 -69.691406 20.875 -66.265625 C 20.875 -63.941406 21.46875 -61.960938 22.65625 -60.328125 C 23.84375 -58.691406 25.753906 -57.132812 28.390625 -55.65625 C 31.023438 -54.1875 36.082031 -52.054688 43.5625 -49.265625 C 53.84375 -45.515625 60.785156 -41.742188 64.390625 -37.953125 C 68.003906 -34.160156 69.8125 -29.390625 69.8125 -23.640625 Z M 69.8125 -23.640625" transform="translate(1727.616 2243.406)"/></g></g><g><g><path d="M 50.53125 1.578125 C 37.71875 1.578125 27.609375 -2.320312 20.203125 -10.125 C 12.796875 -17.925781 9.09375 -28.757812 9.09375 -42.625 C 9.09375 -56.59375 12.53125 -67.6875 19.40625 -75.90625 C 26.289062 -84.132812 35.53125 -88.25 47.125 -88.25 C 57.988281 -88.25 66.582031 -84.675781 72.90625 -77.53125 C 79.226562 -70.382812 82.390625 -60.960938 82.390625 -49.265625 L 82.390625 -40.953125 L 22.6875 -40.953125 C 22.957031 -30.785156 25.53125 -23.066406 30.40625 -17.796875 C 35.28125 -12.523438 42.144531 -9.890625 51 -9.890625 C 60.332031 -9.890625 69.554688 -11.835938 78.671875 -15.734375 L 78.671875 -4.03125 C 74.035156 -2.03125 69.644531 -0.597656 65.5 0.265625 C 61.363281 1.140625 56.375 1.578125 50.53125 1.578125 Z M 46.96875 -77.25 C 40.007812 -77.25 34.457031 -74.984375 30.3125 -70.453125 C 26.175781 -65.921875 23.742188 -59.648438 23.015625 -51.640625 L 68.3125 -51.640625 C 68.3125 -59.910156 66.46875 -66.242188 62.78125 -70.640625 C 59.09375 -75.046875 53.820312 -77.25 46.96875 -77.25 Z M 46.96875 -77.25" transform="translate(1804.869 2243.406)"/></g></g><g><g><path d="M 73.21875 0 L 73.21875 -56.0625 C 73.21875 -63.125 71.609375 -68.394531 68.390625 -71.875 C 65.179688 -75.351562 60.148438 -77.09375 53.296875 -77.09375 C 44.171875 -77.09375 37.515625 -74.613281 33.328125 -69.65625 C 29.140625 -64.707031 27.046875 -56.59375 27.046875 -45.3125 L 27.046875 0 L 13.921875 0 L 13.921875 -123.03125 L 27.046875 -123.03125 L 27.046875 -85.796875 C 27.046875 -81.316406 26.832031 -77.597656 26.40625 -74.640625 L 27.203125 -74.640625 C 29.785156 -78.804688 33.460938 -82.085938 38.234375 -84.484375 C 43.003906 -86.878906 48.445312 -88.078125 54.5625 -88.078125 C 65.15625 -88.078125 73.097656 -85.5625 78.390625 -80.53125 C 83.691406 -75.5 86.34375 -67.5 86.34375 -56.53125 L 86.34375 0 Z M 73.21875 0" transform="translate(1937.787 2243.406)"/></g></g><g><g><path d="M 67.203125 0 L 64.59375 -12.328125 L 63.96875 -12.328125 C 59.644531 -6.898438 55.332031 -3.222656 51.03125 -1.296875 C 46.738281 0.617188 41.378906 1.578125 34.953125 1.578125 C 26.359375 1.578125 19.625 -0.632812 14.75 -5.0625 C 9.875 -9.488281 7.4375 -15.785156 7.4375 -23.953125 C 7.4375 -41.453125 21.429688 -50.625 49.421875 -51.46875 L 64.125 -51.953125 L 64.125 -57.328125 C 64.125 -64.128906 62.660156 -69.148438 59.734375 -72.390625 C 56.804688 -75.628906 52.128906 -77.25 45.703125 -77.25 C 38.484375 -77.25 30.3125 -75.035156 21.1875 -70.609375 L 17.15625 -80.65625 C 21.425781 -82.96875 26.101562 -84.78125 31.1875 -86.09375 C 36.28125 -87.414062 41.382812 -88.078125 46.5 -88.078125 C 56.820312 -88.078125 64.472656 -85.785156 69.453125 -81.203125 C 74.441406 -76.617188 76.9375 -69.265625 76.9375 -59.140625 L 76.9375 0 Z M 37.5625 -9.25 C 45.726562 -9.25 52.144531 -11.488281 56.8125 -15.96875 C 61.476562 -20.445312 63.8125 -26.722656 63.8125 -34.796875 L 63.8125 -42.625 L 50.6875 -42.0625 C 40.25 -41.695312 32.722656 -40.078125 28.109375 -37.203125 C 23.492188 -34.328125 21.1875 -29.859375 21.1875 -23.796875 C 21.1875 -19.054688 22.625 -15.445312 25.5 -12.96875 C 28.375 -10.488281 32.394531 -9.25 37.5625 -9.25 Z M 37.5625 -9.25" transform="translate(2037.18 2243.406)"/></g></g><g><g><path d="M 73.21875 0 L 73.21875 -56.0625 C 73.21875 -63.125 71.609375 -68.394531 68.390625 -71.875 C 65.179688 -75.351562 60.148438 -77.09375 53.296875 -77.09375 C 44.222656 -77.09375 37.578125 -74.640625 33.359375 -69.734375 C 29.148438 -64.835938 27.046875 -56.75 27.046875 -45.46875 L 27.046875 0 L 13.921875 0 L 13.921875 -86.65625 L 24.59375 -86.65625 L 26.71875 -74.796875 L 27.359375 -74.796875 C 30.046875 -79.066406 33.8125 -82.375 38.65625 -84.71875 C 43.507812 -87.070312 48.914062 -88.25 54.875 -88.25 C 65.3125 -88.25 73.164062 -85.726562 78.4375 -80.6875 C 83.707031 -75.65625 86.34375 -67.601562 86.34375 -56.53125 L 86.34375 0 Z M 73.21875 0" transform="translate(2127.241 2243.406)"/></g></g><g><g><path d="M 54.25 1.578125 C 48.601562 1.578125 43.445312 0.535156 38.78125 -1.546875 C 34.113281 -3.628906 30.203125 -6.832031 27.046875 -11.15625 L 26.09375 -11.15625 C 26.726562 -6.09375 27.046875 -1.296875 27.046875 3.234375 L 27.046875 38.90625 L 13.921875 38.90625 L 13.921875 -86.65625 L 24.59375 -86.65625 L 26.40625 -74.796875 L 27.046875 -74.796875 C 30.421875 -79.546875 34.347656 -82.972656 38.828125 -85.078125 C 43.304688 -87.191406 48.445312 -88.25 54.25 -88.25 C 65.738281 -88.25 74.601562 -84.320312 80.84375 -76.46875 C 87.09375 -68.613281 90.21875 -57.59375 90.21875 -43.40625 C 90.21875 -29.175781 87.039062 -18.117188 80.6875 -10.234375 C 74.332031 -2.359375 65.519531 1.578125 54.25 1.578125 Z M 52.34375 -77.09375 C 43.488281 -77.09375 37.082031 -74.640625 33.125 -69.734375 C 29.175781 -64.835938 27.148438 -57.035156 27.046875 -46.328125 L 27.046875 -43.40625 C 27.046875 -31.226562 29.070312 -22.515625 33.125 -17.265625 C 37.1875 -12.023438 43.695312 -9.40625 52.65625 -9.40625 C 60.144531 -9.40625 66.007812 -12.4375 70.25 -18.5 C 74.5 -24.5625 76.625 -32.914062 76.625 -43.5625 C 76.625 -54.375 74.5 -62.664062 70.25 -68.4375 C 66.007812 -74.207031 60.039062 -77.09375 52.34375 -77.09375 Z M 52.34375 -77.09375" transform="translate(2268.7 2243.406)"/></g></g><g><g><path d="M 26.25 -86.65625 L 26.25 -30.4375 C 26.25 -23.375 27.851562 -18.101562 31.0625 -14.625 C 34.28125 -11.144531 39.316406 -9.40625 46.171875 -9.40625 C 55.242188 -9.40625 61.875 -11.882812 66.0625 -16.84375 C 70.25 -21.800781 72.34375 -29.890625 72.34375 -41.109375 L 72.34375 -86.65625 L 85.46875 -86.65625 L 85.46875 0 L 74.640625 0 L 72.75 -11.625 L 72.03125 -11.625 C 69.34375 -7.351562 65.613281 -4.082031 60.84375 -1.8125 C 56.070312 0.445312 50.628906 1.578125 44.515625 1.578125 C 33.972656 1.578125 26.078125 -0.921875 20.828125 -5.921875 C 15.585938 -10.929688 12.96875 -18.945312 12.96875 -29.96875 L 12.96875 -86.65625 Z M 26.25 -86.65625" transform="translate(2367.934 2243.406)"/></g></g><g><g><path d="M 54.25 -88.078125 C 65.632812 -88.078125 74.472656 -84.191406 80.765625 -76.421875 C 87.066406 -68.648438 90.21875 -57.644531 90.21875 -43.40625 C 90.21875 -29.175781 87.039062 -18.117188 80.6875 -10.234375 C 74.332031 -2.359375 65.519531 1.578125 54.25 1.578125 C 48.601562 1.578125 43.445312 0.535156 38.78125 -1.546875 C 34.113281 -3.628906 30.203125 -6.832031 27.046875 -11.15625 L 26.09375 -11.15625 L 23.328125 0 L 13.921875 0 L 13.921875 -123.03125 L 27.046875 -123.03125 L 27.046875 -93.140625 C 27.046875 -86.453125 26.832031 -80.445312 26.40625 -75.125 L 27.046875 -75.125 C 33.160156 -83.757812 42.226562 -88.078125 54.25 -88.078125 Z M 52.34375 -77.09375 C 43.382812 -77.09375 36.925781 -74.519531 32.96875 -69.375 C 29.019531 -64.238281 27.046875 -55.582031 27.046875 -43.40625 C 27.046875 -31.226562 29.070312 -22.515625 33.125 -17.265625 C 37.1875 -12.023438 43.695312 -9.40625 52.65625 -9.40625 C 60.726562 -9.40625 66.738281 -12.34375 70.6875 -18.21875 C 74.644531 -24.101562 76.625 -32.550781 76.625 -43.5625 C 76.625 -54.84375 74.644531 -63.25 70.6875 -68.78125 C 66.738281 -74.320312 60.625 -77.09375 52.34375 -77.09375 Z M 52.34375 -77.09375" transform="translate(2467.326 2243.406)"/></g></g><g><g><path d="M 27.046875 0 L 13.921875 0 L 13.921875 -123.03125 L 27.046875 -123.03125 Z M 27.046875 0" transform="translate(2566.56 2243.406)"/></g></g><g><g><path d="M 27.046875 0 L 13.921875 0 L 13.921875 -86.65625 L 27.046875 -86.65625 Z M 12.8125 -110.140625 C 12.8125 -113.148438 13.546875 -115.351562 15.015625 -116.75 C 16.492188 -118.144531 18.34375 -118.84375 20.5625 -118.84375 C 22.664062 -118.84375 24.484375 -118.128906 26.015625 -116.703125 C 27.546875 -115.285156 28.3125 -113.097656 28.3125 -110.140625 C 28.3125 -107.191406 27.546875 -104.992188 26.015625 -103.546875 C 24.484375 -102.097656 22.664062 -101.375 20.5625 -101.375 C 18.34375 -101.375 16.492188 -102.097656 15.015625 -103.546875 C 13.546875 -104.992188 12.8125 -107.191406 12.8125 -110.140625 Z M 12.8125 -110.140625" transform="translate(2607.519 2243.406)"/></g></g><g><g><path d="M 48.546875 1.578125 C 36.003906 1.578125 26.289062 -2.28125 19.40625 -10 C 12.53125 -17.726562 9.09375 -28.65625 9.09375 -42.78125 C 9.09375 -57.269531 12.582031 -68.46875 19.5625 -76.375 C 26.550781 -84.289062 36.503906 -88.25 49.421875 -88.25 C 53.585938 -88.25 57.75 -87.800781 61.90625 -86.90625 C 66.070312 -86.007812 69.34375 -84.953125 71.71875 -83.734375 L 67.6875 -72.59375 C 64.78125 -73.75 61.613281 -74.707031 58.1875 -75.46875 C 54.769531 -76.238281 51.742188 -76.625 49.109375 -76.625 C 31.492188 -76.625 22.6875 -65.394531 22.6875 -42.9375 C 22.6875 -32.289062 24.832031 -24.117188 29.125 -18.421875 C 33.425781 -12.734375 39.796875 -9.890625 48.234375 -9.890625 C 55.453125 -9.890625 62.859375 -11.441406 70.453125 -14.546875 L 70.453125 -2.921875 C 64.648438 0.078125 57.347656 1.578125 48.546875 1.578125 Z M 48.546875 1.578125" transform="translate(2648.478 2243.406)"/></g></g><g><g><path d="M 67.203125 0 L 64.59375 -12.328125 L 63.96875 -12.328125 C 59.644531 -6.898438 55.332031 -3.222656 51.03125 -1.296875 C 46.738281 0.617188 41.378906 1.578125 34.953125 1.578125 C 26.359375 1.578125 19.625 -0.632812 14.75 -5.0625 C 9.875 -9.488281 7.4375 -15.785156 7.4375 -23.953125 C 7.4375 -41.453125 21.429688 -50.625 49.421875 -51.46875 L 64.125 -51.953125 L 64.125 -57.328125 C 64.125 -64.128906 62.660156 -69.148438 59.734375 -72.390625 C 56.804688 -75.628906 52.128906 -77.25 45.703125 -77.25 C 38.484375 -77.25 30.3125 -75.035156 21.1875 -70.609375 L 17.15625 -80.65625 C 21.425781 -82.96875 26.101562 -84.78125 31.1875 -86.09375 C 36.28125 -87.414062 41.382812 -88.078125 46.5 -88.078125 C 56.820312 -88.078125 64.472656 -85.785156 69.453125 -81.203125 C 74.441406 -76.617188 76.9375 -69.265625 76.9375 -59.140625 L 76.9375 0 Z M 37.5625 -9.25 C 45.726562 -9.25 52.144531 -11.488281 56.8125 -15.96875 C 61.476562 -20.445312 63.8125 -26.722656 63.8125 -34.796875 L 63.8125 -42.625 L 50.6875 -42.0625 C 40.25 -41.695312 32.722656 -40.078125 28.109375 -37.203125 C 23.492188 -34.328125 21.1875 -29.859375 21.1875 -23.796875 C 21.1875 -19.054688 22.625 -15.445312 25.5 -12.96875 C 28.375 -10.488281 32.394531 -9.25 37.5625 -9.25 Z M 37.5625 -9.25" transform="translate(2725.572 2243.406)"/></g></g><g><g><path d="M 72.90625 -11.625 L 72.1875 -11.625 C 66.125 -2.820312 57.054688 1.578125 44.984375 1.578125 C 33.648438 1.578125 24.832031 -2.296875 18.53125 -10.046875 C 12.238281 -17.796875 9.09375 -28.8125 9.09375 -43.09375 C 9.09375 -57.375 12.253906 -68.46875 18.578125 -76.375 C 24.898438 -84.289062 33.703125 -88.25 44.984375 -88.25 C 56.742188 -88.25 65.757812 -83.976562 72.03125 -75.4375 L 73.0625 -75.4375 L 72.515625 -81.6875 L 72.1875 -87.765625 L 72.1875 -123.03125 L 85.3125 -123.03125 L 85.3125 0 L 74.640625 0 Z M 46.65625 -9.40625 C 55.613281 -9.40625 62.109375 -11.84375 66.140625 -16.71875 C 70.171875 -21.59375 72.1875 -29.460938 72.1875 -40.328125 L 72.1875 -43.09375 C 72.1875 -55.375 70.144531 -64.132812 66.0625 -69.375 C 61.976562 -74.625 55.457031 -77.25 46.5 -77.25 C 38.800781 -77.25 32.90625 -74.253906 28.8125 -68.265625 C 24.726562 -62.285156 22.6875 -53.84375 22.6875 -42.9375 C 22.6875 -31.863281 24.71875 -23.503906 28.78125 -17.859375 C 32.84375 -12.222656 38.800781 -9.40625 46.65625 -9.40625 Z M 46.65625 -9.40625" transform="translate(2815.634 2243.406)"/></g></g><g><g><path d="M 88.71875 -43.40625 C 88.71875 -29.28125 85.160156 -18.25 78.046875 -10.3125 C 70.929688 -2.382812 61.097656 1.578125 48.546875 1.578125 C 40.796875 1.578125 33.914062 -0.238281 27.90625 -3.875 C 21.894531 -7.507812 17.253906 -12.726562 13.984375 -19.53125 C 10.722656 -26.332031 9.09375 -34.289062 9.09375 -43.40625 C 9.09375 -57.53125 12.625 -68.535156 19.6875 -76.421875 C 26.75 -84.304688 36.554688 -88.25 49.109375 -88.25 C 61.234375 -88.25 70.863281 -84.210938 78 -76.140625 C 85.144531 -68.078125 88.71875 -57.164062 88.71875 -43.40625 Z M 22.6875 -43.40625 C 22.6875 -32.34375 24.898438 -23.910156 29.328125 -18.109375 C 33.765625 -12.304688 40.273438 -9.40625 48.859375 -9.40625 C 57.453125 -9.40625 63.976562 -12.289062 68.4375 -18.0625 C 72.894531 -23.832031 75.125 -32.28125 75.125 -43.40625 C 75.125 -54.425781 72.894531 -62.796875 68.4375 -68.515625 C 63.976562 -74.234375 57.398438 -77.09375 48.703125 -77.09375 C 40.109375 -77.09375 33.625 -74.269531 29.25 -68.625 C 24.875 -62.988281 22.6875 -54.582031 22.6875 -43.40625 Z M 22.6875 -43.40625" transform="translate(2914.868 2243.406)"/></g></g><g><g><path d="M 48.546875 1.578125 C 36.003906 1.578125 26.289062 -2.28125 19.40625 -10 C 12.53125 -17.726562 9.09375 -28.65625 9.09375 -42.78125 C 9.09375 -57.269531 12.582031 -68.46875 19.5625 -76.375 C 26.550781 -84.289062 36.503906 -88.25 49.421875 -88.25 C 53.585938 -88.25 57.75 -87.800781 61.90625 -86.90625 C 66.070312 -86.007812 69.34375 -84.953125 71.71875 -83.734375 L 67.6875 -72.59375 C 64.78125 -73.75 61.613281 -74.707031 58.1875 -75.46875 C 54.769531 -76.238281 51.742188 -76.625 49.109375 -76.625 C 31.492188 -76.625 22.6875 -65.394531 22.6875 -42.9375 C 22.6875 -32.289062 24.832031 -24.117188 29.125 -18.421875 C 33.425781 -12.734375 39.796875 -9.890625 48.234375 -9.890625 C 55.453125 -9.890625 62.859375 -11.441406 70.453125 -14.546875 L 70.453125 -2.921875 C 64.648438 0.078125 57.347656 1.578125 48.546875 1.578125 Z M 48.546875 1.578125" transform="translate(3054.745 2243.406)"/></g></g><g><g><path d="M 88.71875 -43.40625 C 88.71875 -29.28125 85.160156 -18.25 78.046875 -10.3125 C 70.929688 -2.382812 61.097656 1.578125 48.546875 1.578125 C 40.796875 1.578125 33.914062 -0.238281 27.90625 -3.875 C 21.894531 -7.507812 17.253906 -12.726562 13.984375 -19.53125 C 10.722656 -26.332031 9.09375 -34.289062 9.09375 -43.40625 C 9.09375 -57.53125 12.625 -68.535156 19.6875 -76.421875 C 26.75 -84.304688 36.554688 -88.25 49.109375 -88.25 C 61.234375 -88.25 70.863281 -84.210938 78 -76.140625 C 85.144531 -68.078125 88.71875 -57.164062 88.71875 -43.40625 Z M 22.6875 -43.40625 C 22.6875 -32.34375 24.898438 -23.910156 29.328125 -18.109375 C 33.765625 -12.304688 40.273438 -9.40625 48.859375 -9.40625 C 57.453125 -9.40625 63.976562 -12.289062 68.4375 -18.0625 C 72.894531 -23.832031 75.125 -32.28125 75.125 -43.40625 C 75.125 -54.425781 72.894531 -62.796875 68.4375 -68.515625 C 63.976562 -74.234375 57.398438 -77.09375 48.703125 -77.09375 C 40.109375 -77.09375 33.625 -74.269531 29.25 -68.625 C 24.875 -62.988281 22.6875 -54.582031 22.6875 -43.40625 Z M 22.6875 -43.40625" transform="translate(3131.84 2243.406)"/></g></g><g><g><path d="M 124.375 0 L 124.375 -56.375 C 124.375 -63.28125 122.894531 -68.457031 119.9375 -71.90625 C 116.988281 -75.363281 112.40625 -77.09375 106.1875 -77.09375 C 98.019531 -77.09375 91.984375 -74.742188 88.078125 -70.046875 C 84.179688 -65.359375 82.234375 -58.140625 82.234375 -48.390625 L 82.234375 0 L 69.109375 0 L 69.109375 -56.375 C 69.109375 -63.28125 67.628906 -68.457031 64.671875 -71.90625 C 61.722656 -75.363281 57.113281 -77.09375 50.84375 -77.09375 C 42.613281 -77.09375 36.585938 -74.628906 32.765625 -69.703125 C 28.953125 -64.773438 27.046875 -56.695312 27.046875 -45.46875 L 27.046875 0 L 13.921875 0 L 13.921875 -86.65625 L 24.59375 -86.65625 L 26.71875 -74.796875 L 27.359375 -74.796875 C 29.835938 -79.015625 33.328125 -82.3125 37.828125 -84.6875 C 42.335938 -87.0625 47.390625 -88.25 52.984375 -88.25 C 66.523438 -88.25 75.378906 -83.34375 79.546875 -73.53125 L 80.171875 -73.53125 C 82.753906 -78.070312 86.5 -81.660156 91.40625 -84.296875 C 96.3125 -86.929688 101.898438 -88.25 108.171875 -88.25 C 117.972656 -88.25 125.3125 -85.726562 130.1875 -80.6875 C 135.0625 -75.65625 137.5 -67.601562 137.5 -56.53125 L 137.5 0 Z M 124.375 0" transform="translate(3229.65 2243.406)"/></g></g><g><g><path d="M 26.25 -86.65625 L 26.25 -30.4375 C 26.25 -23.375 27.851562 -18.101562 31.0625 -14.625 C 34.28125 -11.144531 39.316406 -9.40625 46.171875 -9.40625 C 55.242188 -9.40625 61.875 -11.882812 66.0625 -16.84375 C 70.25 -21.800781 72.34375 -29.890625 72.34375 -41.109375 L 72.34375 -86.65625 L 85.46875 -86.65625 L 85.46875 0 L 74.640625 0 L 72.75 -11.625 L 72.03125 -11.625 C 69.34375 -7.351562 65.613281 -4.082031 60.84375 -1.8125 C 56.070312 0.445312 50.628906 1.578125 44.515625 1.578125 C 33.972656 1.578125 26.078125 -0.921875 20.828125 -5.921875 C 15.585938 -10.929688 12.96875 -18.945312 12.96875 -29.96875 L 12.96875 -86.65625 Z M 26.25 -86.65625" transform="translate(3380.28 2243.406)"/></g></g><g><g><path d="M 73.21875 0 L 73.21875 -56.0625 C 73.21875 -63.125 71.609375 -68.394531 68.390625 -71.875 C 65.179688 -75.351562 60.148438 -77.09375 53.296875 -77.09375 C 44.222656 -77.09375 37.578125 -74.640625 33.359375 -69.734375 C 29.148438 -64.835938 27.046875 -56.75 27.046875 -45.46875 L 27.046875 0 L 13.921875 0 L 13.921875 -86.65625 L 24.59375 -86.65625 L 26.71875 -74.796875 L 27.359375 -74.796875 C 30.046875 -79.066406 33.8125 -82.375 38.65625 -84.71875 C 43.507812 -87.070312 48.914062 -88.25 54.875 -88.25 C 65.3125 -88.25 73.164062 -85.726562 78.4375 -80.6875 C 83.707031 -75.65625 86.34375 -67.601562 86.34375 -56.53125 L 86.34375 0 Z M 73.21875 0" transform="translate(3479.673 2243.406)"/></g></g><g><g><path d="M 27.046875 0 L 13.921875 0 L 13.921875 -86.65625 L 27.046875 -86.65625 Z M 12.8125 -110.140625 C 12.8125 -113.148438 13.546875 -115.351562 15.015625 -116.75 C 16.492188 -118.144531 18.34375 -118.84375 20.5625 -118.84375 C 22.664062 -118.84375 24.484375 -118.128906 26.015625 -116.703125 C 27.546875 -115.285156 28.3125 -113.097656 28.3125 -110.140625 C 28.3125 -107.191406 27.546875 -104.992188 26.015625 -103.546875 C 24.484375 -102.097656 22.664062 -101.375 20.5625 -101.375 C 18.34375 -101.375 16.492188 -102.097656 15.015625 -103.546875 C 13.546875 -104.992188 12.8125 -107.191406 12.8125 -110.140625 Z M 12.8125 -110.140625" transform="translate(3579.065 2243.406)"/></g></g><g><g><path d="M 48.546875 1.578125 C 36.003906 1.578125 26.289062 -2.28125 19.40625 -10 C 12.53125 -17.726562 9.09375 -28.65625 9.09375 -42.78125 C 9.09375 -57.269531 12.582031 -68.46875 19.5625 -76.375 C 26.550781 -84.289062 36.503906 -88.25 49.421875 -88.25 C 53.585938 -88.25 57.75 -87.800781 61.90625 -86.90625 C 66.070312 -86.007812 69.34375 -84.953125 71.71875 -83.734375 L 67.6875 -72.59375 C 64.78125 -73.75 61.613281 -74.707031 58.1875 -75.46875 C 54.769531 -76.238281 51.742188 -76.625 49.109375 -76.625 C 31.492188 -76.625 22.6875 -65.394531 22.6875 -42.9375 C 22.6875 -32.289062 24.832031 -24.117188 29.125 -18.421875 C 33.425781 -12.734375 39.796875 -9.890625 48.234375 -9.890625 C 55.453125 -9.890625 62.859375 -11.441406 70.453125 -14.546875 L 70.453125 -2.921875 C 64.648438 0.078125 57.347656 1.578125 48.546875 1.578125 Z M 48.546875 1.578125" transform="translate(3620.024 2243.406)"/></g></g><g><g><path d="M 67.203125 0 L 64.59375 -12.328125 L 63.96875 -12.328125 C 59.644531 -6.898438 55.332031 -3.222656 51.03125 -1.296875 C 46.738281 0.617188 41.378906 1.578125 34.953125 1.578125 C 26.359375 1.578125 19.625 -0.632812 14.75 -5.0625 C 9.875 -9.488281 7.4375 -15.785156 7.4375 -23.953125 C 7.4375 -41.453125 21.429688 -50.625 49.421875 -51.46875 L 64.125 -51.953125 L 64.125 -57.328125 C 64.125 -64.128906 62.660156 -69.148438 59.734375 -72.390625 C 56.804688 -75.628906 52.128906 -77.25 45.703125 -77.25 C 38.484375 -77.25 30.3125 -75.035156 21.1875 -70.609375 L 17.15625 -80.65625 C 21.425781 -82.96875 26.101562 -84.78125 31.1875 -86.09375 C 36.28125 -87.414062 41.382812 -88.078125 46.5 -88.078125 C 56.820312 -88.078125 64.472656 -85.785156 69.453125 -81.203125 C 74.441406 -76.617188 76.9375 -69.265625 76.9375 -59.140625 L 76.9375 0 Z M 37.5625 -9.25 C 45.726562 -9.25 52.144531 -11.488281 56.8125 -15.96875 C 61.476562 -20.445312 63.8125 -26.722656 63.8125 -34.796875 L 63.8125 -42.625 L 50.6875 -42.0625 C 40.25 -41.695312 32.722656 -40.078125 28.109375 -37.203125 C 23.492188 -34.328125 21.1875 -29.859375 21.1875 -23.796875 C 21.1875 -19.054688 22.625 -15.445312 25.5 -12.96875 C 28.375 -10.488281 32.394531 -9.25 37.5625 -9.25 Z M 37.5625 -9.25" transform="translate(3697.118 2243.406)"/></g></g><g><g><path d="M 72.90625 -11.625 L 72.1875 -11.625 C 66.125 -2.820312 57.054688 1.578125 44.984375 1.578125 C 33.648438 1.578125 24.832031 -2.296875 18.53125 -10.046875 C 12.238281 -17.796875 9.09375 -28.8125 9.09375 -43.09375 C 9.09375 -57.375 12.253906 -68.46875 18.578125 -76.375 C 24.898438 -84.289062 33.703125 -88.25 44.984375 -88.25 C 56.742188 -88.25 65.757812 -83.976562 72.03125 -75.4375 L 73.0625 -75.4375 L 72.515625 -81.6875 L 72.1875 -87.765625 L 72.1875 -123.03125 L 85.3125 -123.03125 L 85.3125 0 L 74.640625 0 Z M 46.65625 -9.40625 C 55.613281 -9.40625 62.109375 -11.84375 66.140625 -16.71875 C 70.171875 -21.59375 72.1875 -29.460938 72.1875 -40.328125 L 72.1875 -43.09375 C 72.1875 -55.375 70.144531 -64.132812 66.0625 -69.375 C 61.976562 -74.625 55.457031 -77.25 46.5 -77.25 C 38.800781 -77.25 32.90625 -74.253906 28.8125 -68.265625 C 24.726562 -62.285156 22.6875 -53.84375 22.6875 -42.9375 C 22.6875 -31.863281 24.71875 -23.503906 28.78125 -17.859375 C 32.84375 -12.222656 38.800781 -9.40625 46.65625 -9.40625 Z M 46.65625 -9.40625" transform="translate(3787.18 2243.406)"/></g></g><g><g><path d="M 88.71875 -43.40625 C 88.71875 -29.28125 85.160156 -18.25 78.046875 -10.3125 C 70.929688 -2.382812 61.097656 1.578125 48.546875 1.578125 C 40.796875 1.578125 33.914062 -0.238281 27.90625 -3.875 C 21.894531 -7.507812 17.253906 -12.726562 13.984375 -19.53125 C 10.722656 -26.332031 9.09375 -34.289062 9.09375 -43.40625 C 9.09375 -57.53125 12.625 -68.535156 19.6875 -76.421875 C 26.75 -84.304688 36.554688 -88.25 49.109375 -88.25 C 61.234375 -88.25 70.863281 -84.210938 78 -76.140625 C 85.144531 -68.078125 88.71875 -57.164062 88.71875 -43.40625 Z M 22.6875 -43.40625 C 22.6875 -32.34375 24.898438 -23.910156 29.328125 -18.109375 C 33.765625 -12.304688 40.273438 -9.40625 48.859375 -9.40625 C 57.453125 -9.40625 63.976562 -12.289062 68.4375 -18.0625 C 72.894531 -23.832031 75.125 -32.28125 75.125 -43.40625 C 75.125 -54.425781 72.894531 -62.796875 68.4375 -68.515625 C 63.976562 -74.234375 57.398438 -77.09375 48.703125 -77.09375 C 40.109375 -77.09375 33.625 -74.269531 29.25 -68.625 C 24.875 -62.988281 22.6875 -54.582031 22.6875 -43.40625 Z M 22.6875 -43.40625" transform="translate(3886.414 2243.406)"/></g></g><g><g><path d="M 69.8125 -23.640625 C 69.8125 -15.578125 66.804688 -9.359375 60.796875 -4.984375 C 54.796875 -0.609375 46.363281 1.578125 35.5 1.578125 C 24.007812 1.578125 15.050781 -0.238281 8.625 -3.875 L 8.625 -16.046875 C 12.78125 -13.941406 17.242188 -12.28125 22.015625 -11.0625 C 26.785156 -9.851562 31.382812 -9.25 35.8125 -9.25 C 42.664062 -9.25 47.9375 -10.34375 51.625 -12.53125 C 55.320312 -14.71875 57.171875 -18.050781 57.171875 -22.53125 C 57.171875 -25.90625 55.707031 -28.789062 52.78125 -31.1875 C 49.851562 -33.59375 44.144531 -36.425781 35.65625 -39.6875 C 27.59375 -42.695312 21.859375 -45.320312 18.453125 -47.5625 C 15.054688 -49.800781 12.523438 -52.34375 10.859375 -55.1875 C 9.203125 -58.039062 8.375 -61.441406 8.375 -65.390625 C 8.375 -72.453125 11.25 -78.023438 17 -82.109375 C 22.75 -86.203125 30.628906 -88.25 40.640625 -88.25 C 49.972656 -88.25 59.09375 -86.347656 68 -82.546875 L 63.328125 -71.875 C 54.640625 -75.457031 46.757812 -77.25 39.6875 -77.25 C 33.46875 -77.25 28.773438 -76.273438 25.609375 -74.328125 C 22.453125 -72.378906 20.875 -69.691406 20.875 -66.265625 C 20.875 -63.941406 21.46875 -61.960938 22.65625 -60.328125 C 23.84375 -58.691406 25.753906 -57.132812 28.390625 -55.65625 C 31.023438 -54.1875 36.082031 -52.054688 43.5625 -49.265625 C 53.84375 -45.515625 60.785156 -41.742188 64.390625 -37.953125 C 68.003906 -34.160156 69.8125 -29.390625 69.8125 -23.640625 Z M 69.8125 -23.640625" transform="translate(3984.225 2243.406)"/></g></g><g><g><path d="M 12.015625 -8.375 C 12.015625 -11.90625 12.816406 -14.582031 14.421875 -16.40625 C 16.035156 -18.226562 18.34375 -19.140625 21.34375 -19.140625 C 24.40625 -19.140625 26.789062 -18.226562 28.5 -16.40625 C 30.21875 -14.582031 31.078125 -11.90625 31.078125 -8.375 C 31.078125 -4.945312 30.207031 -2.3125 28.46875 -0.46875 C 26.726562 1.375 24.351562 2.296875 21.34375 2.296875 C 18.65625 2.296875 16.425781 1.46875 14.65625 -0.1875 C 12.894531 -1.851562 12.015625 -4.582031 12.015625 -8.375 Z M 12.015625 -8.375" transform="translate(4061.477 2243.406)"/></g></g></g></svg>