<svg xmlns="http://www.w3.org/2000/svg" width="5184" viewBox="0 0 5184 2592" height="2592" version="1.0"><defs><clipPath id="a"><path d="M 2097.441406 1246 L 3086.308594 1246 L 3086.308594 1406 L 2097.441406 1406 Z M 2097.441406 1246"/></clipPath><clipPath id="b"><path d="M 2097.441406 1246 L 2239 1246 L 2239 1406 L 2097.441406 1406 Z M 2097.441406 1246"/></clipPath></defs><path fill="#FFF" d="M 1 0 L 5183 0 L 5183 2591 L 1 2591 Z M 1 0"/><path fill="#032A3D" d="M 1 0 L 5183 0 L 5183 2591 L 1 2591 Z M 1 0"/><path fill="#F5AF50" d="M 2591.875 1281.636719 C 2523.71875 1281.636719 2468.265625 1337.105469 2468.265625 1405.292969 C 2468.265625 1473.460938 2523.71875 1528.925781 2591.875 1528.925781 C 2660.035156 1528.925781 2715.488281 1473.460938 2715.488281 1405.292969 C 2715.488281 1337.105469 2660.035156 1281.636719 2591.875 1281.636719 Z M 2591.875 1281.636719"/><path fill="#F4A63D" d="M 2644.847656 1511.257812 C 2576.691406 1511.257812 2521.238281 1455.800781 2521.238281 1387.613281 C 2521.238281 1343.066406 2544.917969 1303.953125 2580.34375 1282.195312 C 2517.574219 1288.027344 2468.265625 1340.996094 2468.265625 1405.292969 C 2468.265625 1473.460938 2523.71875 1528.925781 2591.875 1528.925781 C 2615.5 1528.925781 2637.585938 1522.253906 2656.382812 1510.695312 C 2652.585938 1511.050781 2648.738281 1511.257812 2644.847656 1511.257812 Z M 2644.847656 1511.257812"/><path fill="#F4DC50" d="M 2503.585938 486.789062 C 2503.585938 438.015625 2543.117188 398.472656 2591.875 398.472656 C 2640.636719 398.472656 2680.167969 438.015625 2680.167969 486.789062 C 2680.167969 535.558594 2640.636719 575.105469 2591.875 575.105469 C 2543.117188 575.105469 2503.585938 535.558594 2503.585938 486.789062 Z M 2591.875 522.117188 C 2611.375 522.117188 2627.195312 506.300781 2627.195312 486.789062 C 2627.195312 467.273438 2611.375 451.457031 2591.875 451.457031 C 2572.367188 451.457031 2556.558594 467.273438 2556.558594 486.789062 C 2556.558594 506.300781 2572.367188 522.117188 2591.875 522.117188 Z M 2591.875 522.117188"/><path fill="#F4DC50" d="M 3022.320312 1265.269531 C 3021.910156 1265.097656 2980.664062 1247.632812 2939.945312 1191.617188 C 2901.988281 1139.425781 2856.75 1042.183594 2856.75 875.382812 C 2856.75 766.742188 2826.691406 682.964844 2767.402344 626.355469 C 2704.601562 566.394531 2630.472656 557.457031 2591.875 557.457031 C 2553.269531 557.457031 2479.152344 566.394531 2416.339844 626.355469 C 2357.058594 682.964844 2327 766.742188 2327 875.382812 C 2327 1042.183594 2281.753906 1139.425781 2243.808594 1191.617188 C 2203.089844 1247.632812 2161.84375 1265.097656 2161.507812 1265.238281 C 2153.660156 1268.375 2149.136719 1276.65625 2150.730469 1284.976562 C 2152.335938 1293.289062 2159.609375 1299.296875 2168.070312 1299.296875 L 3015.671875 1299.296875 C 3024.097656 1299.296875 3031.320312 1293.324219 3032.957031 1285.054688 C 3034.597656 1276.785156 3030.113281 1268.484375 3022.320312 1265.269531 Z M 3022.320312 1265.269531"/><path fill="#F2D83D" d="M 2221.367188 1284.976562 C 2219.761719 1276.65625 2224.289062 1268.375 2232.144531 1265.25 C 2232.46875 1265.097656 2273.726562 1247.632812 2314.445312 1191.617188 C 2352.394531 1139.425781 2397.628906 1042.195312 2397.628906 875.382812 C 2397.628906 766.742188 2427.6875 682.964844 2486.976562 626.355469 C 2533.902344 581.550781 2587.15625 565.230469 2627.195312 559.839844 C 2613.660156 558.027344 2601.628906 557.457031 2591.875 557.457031 C 2553.269531 557.457031 2479.152344 566.394531 2416.339844 626.355469 C 2357.058594 682.964844 2327 766.742188 2327 875.382812 C 2327 1042.183594 2281.753906 1139.425781 2243.808594 1191.617188 C 2203.089844 1247.632812 2161.84375 1265.097656 2161.507812 1265.238281 C 2153.660156 1268.375 2149.136719 1276.65625 2150.730469 1284.976562 C 2152.335938 1293.289062 2159.609375 1299.296875 2168.070312 1299.296875 L 2238.710938 1299.296875 C 2230.238281 1299.296875 2222.972656 1293.289062 2221.367188 1284.976562 Z M 2221.367188 1284.976562"/><g clip-path="url(#a)"><path fill="#F6E477" d="M 3033.335938 1246.308594 L 2150.417969 1246.308594 C 2121.199219 1246.308594 2097.445312 1270.078125 2097.445312 1299.296875 L 2097.445312 1352.304688 C 2097.445312 1381.511719 2121.199219 1405.292969 2150.417969 1405.292969 L 3033.335938 1405.292969 C 3062.542969 1405.292969 3086.308594 1381.511719 3086.308594 1352.304688 L 3086.308594 1299.296875 C 3086.308594 1270.078125 3062.542969 1246.308594 3033.335938 1246.308594 Z M 3033.335938 1246.308594"/></g><g clip-path="url(#b)"><path fill="#F4DC50" d="M 2185.734375 1352.304688 L 2185.734375 1299.296875 C 2185.734375 1270.078125 2209.492188 1246.308594 2238.710938 1246.308594 L 2150.417969 1246.308594 C 2121.199219 1246.308594 2097.445312 1270.078125 2097.445312 1299.296875 L 2097.445312 1352.304688 C 2097.445312 1381.511719 2121.199219 1405.292969 2150.417969 1405.292969 L 2238.710938 1405.292969 C 2209.492188 1405.292969 2185.734375 1381.511719 2185.734375 1352.304688 Z M 2185.734375 1352.304688"/></g><path fill="#FB675F" d="M 2839.085938 557.457031 C 2751.464844 557.457031 2680.167969 628.761719 2680.167969 716.410156 C 2680.167969 804.066406 2751.464844 875.382812 2839.085938 875.382812 C 2926.722656 875.382812 2998.015625 804.066406 2998.015625 716.410156 C 2998.015625 628.761719 2926.722656 557.457031 2839.085938 557.457031 Z M 2839.085938 557.457031"/><path fill="#FA544B" d="M 2892.070312 840.054688 C 2804.4375 840.054688 2733.140625 768.738281 2733.140625 681.078125 C 2733.140625 637.460938 2750.804688 597.894531 2779.34375 569.132812 C 2721.242188 592.804688 2680.167969 649.890625 2680.167969 716.410156 C 2680.167969 804.066406 2751.464844 875.382812 2839.085938 875.382812 C 2883.105469 875.382812 2923.003906 857.378906 2951.8125 828.355469 C 2933.351562 835.871094 2913.195312 840.054688 2892.070312 840.054688 Z M 2892.070312 840.054688"/><path fill="#F4F5F7" d="M 2839.085938 787.066406 C 2829.34375 787.066406 2821.433594 779.164062 2821.433594 769.394531 L 2821.433594 706.058594 L 2816.257812 711.234375 C 2809.363281 718.132812 2798.183594 718.132812 2791.289062 711.234375 C 2784.390625 704.332031 2784.390625 693.152344 2791.289062 686.253906 L 2826.605469 650.945312 C 2831.660156 645.890625 2839.25 644.359375 2845.855469 647.097656 C 2852.453125 649.835938 2856.75 656.285156 2856.75 663.421875 L 2856.75 769.394531 C 2856.75 779.164062 2848.839844 787.066406 2839.085938 787.066406 Z M 2839.085938 787.066406"/><g fill="#FFF"><g><g><path d="M 214.859375 0 L 143.046875 0 L 69.03125 -142.78125 L 67.78125 -142.78125 C 69.539062 -120.320312 70.421875 -103.175781 70.421875 -91.34375 L 70.421875 0 L 21.90625 0 L 21.90625 -202.65625 L 93.421875 -202.65625 L 167.171875 -61.828125 L 168 -61.828125 C 166.707031 -82.242188 166.0625 -98.644531 166.0625 -111.03125 L 166.0625 -202.65625 L 214.859375 -202.65625 Z M 214.859375 0" transform="translate(1184.84 1941.4)"/></g></g><g><g><path d="M 130.578125 0 L 123.78125 -19.546875 L 120.59375 -19.546875 C 116.070312 -12.335938 109.765625 -6.816406 101.671875 -2.984375 C 93.585938 0.847656 84.09375 2.765625 73.1875 2.765625 C 55.90625 2.765625 42.457031 -2.242188 32.84375 -12.265625 C 23.238281 -22.296875 18.4375 -36.457031 18.4375 -54.75 L 18.4375 -157.0625 L 72.640625 -157.0625 L 72.640625 -71.25 C 72.640625 -60.988281 74.09375 -53.222656 77 -47.953125 C 79.914062 -42.691406 84.695312 -40.0625 91.34375 -40.0625 C 100.675781 -40.0625 107.328125 -43.734375 111.296875 -51.078125 C 115.273438 -58.421875 117.265625 -70.828125 117.265625 -88.296875 L 117.265625 -157.0625 L 171.46875 -157.0625 L 171.46875 0 Z M 130.578125 0" transform="translate(1421.596 1941.4)"/></g></g><g><g><path d="M 94.53125 2.765625 C 68.382812 2.765625 48.078125 -4.1875 33.609375 -18.09375 C 19.148438 -32 11.921875 -51.796875 11.921875 -77.484375 C 11.921875 -104.003906 18.617188 -124.359375 32.015625 -138.546875 C 45.421875 -152.734375 64.550781 -159.828125 89.40625 -159.828125 C 113.0625 -159.828125 131.332031 -153.65625 144.21875 -141.3125 C 157.113281 -128.976562 163.5625 -111.210938 163.5625 -88.015625 L 163.5625 -63.90625 L 66.671875 -63.90625 C 67.046875 -55.125 70.257812 -48.238281 76.3125 -43.25 C 82.363281 -38.257812 90.609375 -35.765625 101.046875 -35.765625 C 110.566406 -35.765625 119.320312 -36.664062 127.3125 -38.46875 C 135.3125 -40.269531 143.976562 -43.34375 153.3125 -47.6875 L 153.3125 -8.734375 C 144.8125 -4.390625 136.03125 -1.390625 126.96875 0.265625 C 117.914062 1.929688 107.101562 2.765625 94.53125 2.765625 Z M 91.34375 -122.953125 C 84.96875 -122.953125 79.628906 -120.941406 75.328125 -116.921875 C 71.035156 -112.898438 68.519531 -106.59375 67.78125 -98 L 114.359375 -98 C 114.171875 -105.582031 112.019531 -111.632812 107.90625 -116.15625 C 103.800781 -120.6875 98.28125 -122.953125 91.34375 -122.953125 Z M 91.34375 -122.953125" transform="translate(1611.777 1941.4)"/></g></g><g><g><path d="M 59.890625 0 L 0 -157.0625 L 56.5625 -157.0625 L 83.171875 -64.1875 C 83.265625 -63.71875 83.445312 -62.925781 83.71875 -61.8125 C 84 -60.707031 84.273438 -59.394531 84.546875 -57.875 C 84.828125 -56.351562 85.082031 -54.734375 85.3125 -53.015625 C 85.550781 -51.304688 85.671875 -49.710938 85.671875 -48.234375 L 86.640625 -48.234375 C 86.640625 -53.046875 87.46875 -58.269531 89.125 -63.90625 L 117 -157.0625 L 173.40625 -157.0625 L 113.53125 0 Z M 59.890625 0" transform="translate(1787.265 1941.4)"/></g></g><g><g><path d="M 168.703125 -78.875 C 168.703125 -53.1875 161.789062 -33.15625 147.96875 -18.78125 C 134.15625 -4.414062 114.820312 2.765625 89.96875 2.765625 C 66.125 2.765625 47.15625 -4.578125 33.0625 -19.265625 C 18.96875 -33.960938 11.921875 -53.832031 11.921875 -78.875 C 11.921875 -104.46875 18.828125 -124.359375 32.640625 -138.546875 C 46.460938 -152.734375 65.847656 -159.828125 90.796875 -159.828125 C 106.222656 -159.828125 119.851562 -156.546875 131.6875 -149.984375 C 143.519531 -143.421875 152.644531 -134.015625 159.0625 -121.765625 C 165.488281 -109.523438 168.703125 -95.226562 168.703125 -78.875 Z M 66.953125 -78.875 C 66.953125 -65.382812 68.753906 -55.101562 72.359375 -48.03125 C 75.960938 -40.957031 82.015625 -37.421875 90.515625 -37.421875 C 98.921875 -37.421875 104.859375 -40.957031 108.328125 -48.03125 C 111.796875 -55.101562 113.53125 -65.382812 113.53125 -78.875 C 113.53125 -92.269531 111.773438 -102.382812 108.265625 -109.21875 C 104.753906 -116.0625 98.742188 -119.484375 90.234375 -119.484375 C 81.921875 -119.484375 75.960938 -116.085938 72.359375 -109.296875 C 68.753906 -102.503906 66.953125 -92.363281 66.953125 -78.875 Z M 66.953125 -78.875" transform="translate(1960.673 1941.4)"/></g></g><g><g><path d="M 90.234375 2.765625 C 64.546875 2.765625 45.070312 -4.160156 31.8125 -18.015625 C 18.550781 -31.878906 11.921875 -51.796875 11.921875 -77.765625 C 11.921875 -103.828125 19.082031 -124.019531 33.40625 -138.34375 C 47.726562 -152.664062 68.101562 -159.828125 94.53125 -159.828125 C 112.738281 -159.828125 129.882812 -155.851562 145.96875 -147.90625 L 130.03125 -107.84375 C 123.46875 -110.707031 117.410156 -112.992188 111.859375 -114.703125 C 106.316406 -116.410156 100.539062 -117.265625 94.53125 -117.265625 C 85.757812 -117.265625 78.96875 -113.84375 74.15625 -107 C 69.351562 -100.164062 66.953125 -90.515625 66.953125 -78.046875 C 66.953125 -52.910156 76.238281 -40.34375 94.8125 -40.34375 C 110.707031 -40.34375 125.957031 -44.960938 140.5625 -54.203125 L 140.5625 -11.09375 C 126.601562 -1.851562 109.828125 2.765625 90.234375 2.765625 Z M 90.234375 2.765625" transform="translate(2215.31 1941.4)"/></g></g><g><g><path d="M 168.703125 -78.875 C 168.703125 -53.1875 161.789062 -33.15625 147.96875 -18.78125 C 134.15625 -4.414062 114.820312 2.765625 89.96875 2.765625 C 66.125 2.765625 47.15625 -4.578125 33.0625 -19.265625 C 18.96875 -33.960938 11.921875 -53.832031 11.921875 -78.875 C 11.921875 -104.46875 18.828125 -124.359375 32.640625 -138.546875 C 46.460938 -152.734375 65.847656 -159.828125 90.796875 -159.828125 C 106.222656 -159.828125 119.851562 -156.546875 131.6875 -149.984375 C 143.519531 -143.421875 152.644531 -134.015625 159.0625 -121.765625 C 165.488281 -109.523438 168.703125 -95.226562 168.703125 -78.875 Z M 66.953125 -78.875 C 66.953125 -65.382812 68.753906 -55.101562 72.359375 -48.03125 C 75.960938 -40.957031 82.015625 -37.421875 90.515625 -37.421875 C 98.921875 -37.421875 104.859375 -40.957031 108.328125 -48.03125 C 111.796875 -55.101562 113.53125 -65.382812 113.53125 -78.875 C 113.53125 -92.269531 111.773438 -102.382812 108.265625 -109.21875 C 104.753906 -116.0625 98.742188 -119.484375 90.234375 -119.484375 C 81.921875 -119.484375 75.960938 -116.085938 72.359375 -109.296875 C 68.753906 -102.503906 66.953125 -92.363281 66.953125 -78.875 Z M 66.953125 -78.875" transform="translate(2368.343 1941.4)"/></g></g><g><g><path d="M 211.53125 0 L 211.53125 -85.390625 C 211.53125 -96.015625 210.070312 -103.984375 207.15625 -109.296875 C 204.25 -114.609375 199.65625 -117.265625 193.375 -117.265625 C 185.050781 -117.265625 178.945312 -113.707031 175.0625 -106.59375 C 171.1875 -99.476562 169.25 -88.34375 169.25 -73.1875 L 169.25 0 L 114.921875 0 L 114.921875 -85.390625 C 114.921875 -96.015625 113.53125 -103.984375 110.75 -109.296875 C 107.976562 -114.609375 103.5 -117.265625 97.3125 -117.265625 C 88.8125 -117.265625 82.617188 -113.472656 78.734375 -105.890625 C 74.847656 -98.316406 72.90625 -85.9375 72.90625 -68.75 L 72.90625 0 L 18.71875 0 L 18.71875 -157.0625 L 59.609375 -157.0625 L 66.390625 -137.640625 L 69.59375 -137.640625 C 73.75 -144.847656 79.773438 -150.347656 87.671875 -154.140625 C 95.578125 -157.929688 104.566406 -159.828125 114.640625 -159.828125 C 137.273438 -159.828125 153.171875 -152.941406 162.328125 -139.171875 L 166.625 -139.171875 C 171.050781 -145.640625 177.21875 -150.695312 185.125 -154.34375 C 193.03125 -158 201.738281 -159.828125 211.25 -159.828125 C 229.820312 -159.828125 243.546875 -155.066406 252.421875 -145.546875 C 261.296875 -136.023438 265.734375 -121.5625 265.734375 -102.15625 L 265.734375 0 Z M 211.53125 0" transform="translate(2549.237 1941.4)"/></g></g><g><g><path d="M 130.578125 0 L 123.78125 -19.546875 L 120.59375 -19.546875 C 116.070312 -12.335938 109.765625 -6.816406 101.671875 -2.984375 C 93.585938 0.847656 84.09375 2.765625 73.1875 2.765625 C 55.90625 2.765625 42.457031 -2.242188 32.84375 -12.265625 C 23.238281 -22.296875 18.4375 -36.457031 18.4375 -54.75 L 18.4375 -157.0625 L 72.640625 -157.0625 L 72.640625 -71.25 C 72.640625 -60.988281 74.09375 -53.222656 77 -47.953125 C 79.914062 -42.691406 84.695312 -40.0625 91.34375 -40.0625 C 100.675781 -40.0625 107.328125 -43.734375 111.296875 -51.078125 C 115.273438 -58.421875 117.265625 -70.828125 117.265625 -88.296875 L 117.265625 -157.0625 L 171.46875 -157.0625 L 171.46875 0 Z M 130.578125 0" transform="translate(2833.122 1941.4)"/></g></g><g><g><path d="M 117.828125 0 L 117.828125 -85.671875 C 117.828125 -96.109375 116.320312 -103.984375 113.3125 -109.296875 C 110.3125 -114.609375 105.484375 -117.265625 98.828125 -117.265625 C 89.679688 -117.265625 83.070312 -113.613281 79 -106.3125 C 74.9375 -99.019531 72.90625 -86.5 72.90625 -68.75 L 72.90625 0 L 18.71875 0 L 18.71875 -157.0625 L 59.609375 -157.0625 L 66.390625 -137.640625 L 69.59375 -137.640625 C 74.207031 -145.035156 80.601562 -150.582031 88.78125 -154.28125 C 96.957031 -157.976562 106.363281 -159.828125 117 -159.828125 C 134.363281 -159.828125 147.875 -154.789062 157.53125 -144.71875 C 167.195312 -134.644531 172.03125 -120.457031 172.03125 -102.15625 L 172.03125 0 Z M 117.828125 0" transform="translate(3023.303 1941.4)"/></g></g><g><g><path d="M 73.1875 0 L 18.984375 0 L 18.984375 -157.0625 L 73.1875 -157.0625 Z M 17.609375 -196.140625 C 17.609375 -204.273438 19.867188 -210.328125 24.390625 -214.296875 C 28.921875 -218.273438 36.222656 -220.265625 46.296875 -220.265625 C 56.367188 -220.265625 63.710938 -218.226562 68.328125 -214.15625 C 72.953125 -210.09375 75.265625 -204.085938 75.265625 -196.140625 C 75.265625 -180.242188 65.609375 -172.296875 46.296875 -172.296875 C 27.171875 -172.296875 17.609375 -180.242188 17.609375 -196.140625 Z M 17.609375 -196.140625" transform="translate(3213.484 1941.4)"/></g></g><g><g><path d="M 90.234375 2.765625 C 64.546875 2.765625 45.070312 -4.160156 31.8125 -18.015625 C 18.550781 -31.878906 11.921875 -51.796875 11.921875 -77.765625 C 11.921875 -103.828125 19.082031 -124.019531 33.40625 -138.34375 C 47.726562 -152.664062 68.101562 -159.828125 94.53125 -159.828125 C 112.738281 -159.828125 129.882812 -155.851562 145.96875 -147.90625 L 130.03125 -107.84375 C 123.46875 -110.707031 117.410156 -112.992188 111.859375 -114.703125 C 106.316406 -116.410156 100.539062 -117.265625 94.53125 -117.265625 C 85.757812 -117.265625 78.96875 -113.84375 74.15625 -107 C 69.351562 -100.164062 66.953125 -90.515625 66.953125 -78.046875 C 66.953125 -52.910156 76.238281 -40.34375 94.8125 -40.34375 C 110.707031 -40.34375 125.957031 -44.960938 140.5625 -54.203125 L 140.5625 -11.09375 C 126.601562 -1.851562 109.828125 2.765625 90.234375 2.765625 Z M 90.234375 2.765625" transform="translate(3305.802 1941.4)"/></g></g><g><g><path d="M 121.15625 0 L 110.75 -20.796875 L 109.640625 -20.796875 C 102.347656 -11.734375 94.910156 -5.539062 87.328125 -2.21875 C 79.753906 1.101562 69.957031 2.765625 57.9375 2.765625 C 43.15625 2.765625 31.507812 -1.664062 23 -10.53125 C 14.5 -19.40625 10.25 -31.882812 10.25 -47.96875 C 10.25 -64.6875 16.070312 -77.132812 27.71875 -85.3125 C 39.363281 -93.5 56.226562 -98.097656 78.3125 -99.109375 L 104.515625 -99.9375 L 104.515625 -102.15625 C 104.515625 -115.09375 98.140625 -121.5625 85.390625 -121.5625 C 73.929688 -121.5625 59.375 -117.679688 41.71875 -109.921875 L 26.0625 -145.6875 C 44.351562 -155.113281 67.457031 -159.828125 95.375 -159.828125 C 115.519531 -159.828125 131.113281 -154.835938 142.15625 -144.859375 C 153.195312 -134.878906 158.71875 -120.925781 158.71875 -103 L 158.71875 0 Z M 80.953125 -35.484375 C 87.515625 -35.484375 93.128906 -37.5625 97.796875 -41.71875 C 102.460938 -45.882812 104.796875 -51.289062 104.796875 -57.9375 L 104.796875 -70.140625 L 92.3125 -69.59375 C 74.476562 -68.9375 65.5625 -62.375 65.5625 -49.90625 C 65.5625 -40.289062 70.691406 -35.484375 80.953125 -35.484375 Z M 80.953125 -35.484375" transform="translate(3458.834 1941.4)"/></g></g><g><g><path d="M 67.5 2.765625 C 56.320312 2.765625 46.550781 -0.421875 38.1875 -6.796875 C 29.820312 -13.171875 23.351562 -22.546875 18.78125 -34.921875 C 14.207031 -47.304688 11.921875 -61.769531 11.921875 -78.3125 C 11.921875 -103.820312 17.046875 -123.785156 27.296875 -138.203125 C 37.554688 -152.617188 51.65625 -159.828125 69.59375 -159.828125 C 78.363281 -159.828125 86.050781 -158.070312 92.65625 -154.5625 C 99.269531 -151.050781 105.300781 -145.132812 110.75 -136.8125 L 111.859375 -136.8125 C 110.109375 -149.101562 109.234375 -161.394531 109.234375 -173.6875 L 109.234375 -215.6875 L 163.84375 -215.6875 L 163.84375 0 L 122.953125 0 L 111.3125 -19.828125 L 109.234375 -19.828125 C 99.898438 -4.765625 85.988281 2.765625 67.5 2.765625 Z M 89.6875 -40.0625 C 98.375 -40.0625 104.492188 -42.785156 108.046875 -48.234375 C 111.609375 -53.691406 113.53125 -62.101562 113.8125 -73.46875 L 113.8125 -77.765625 C 113.8125 -91.628906 111.820312 -101.492188 107.84375 -107.359375 C 103.875 -113.222656 97.632812 -116.15625 89.125 -116.15625 C 82.007812 -116.15625 76.488281 -112.804688 72.5625 -106.109375 C 68.632812 -99.410156 66.671875 -89.867188 66.671875 -77.484375 C 66.671875 -65.285156 68.65625 -56 72.625 -49.625 C 76.601562 -43.25 82.289062 -40.0625 89.6875 -40.0625 Z M 89.6875 -40.0625" transform="translate(3635.708 1941.4)"/></g></g><g><g><path d="M 168.703125 -78.875 C 168.703125 -53.1875 161.789062 -33.15625 147.96875 -18.78125 C 134.15625 -4.414062 114.820312 2.765625 89.96875 2.765625 C 66.125 2.765625 47.15625 -4.578125 33.0625 -19.265625 C 18.96875 -33.960938 11.921875 -53.832031 11.921875 -78.875 C 11.921875 -104.46875 18.828125 -124.359375 32.640625 -138.546875 C 46.460938 -152.734375 65.847656 -159.828125 90.796875 -159.828125 C 106.222656 -159.828125 119.851562 -156.546875 131.6875 -149.984375 C 143.519531 -143.421875 152.644531 -134.015625 159.0625 -121.765625 C 165.488281 -109.523438 168.703125 -95.226562 168.703125 -78.875 Z M 66.953125 -78.875 C 66.953125 -65.382812 68.753906 -55.101562 72.359375 -48.03125 C 75.960938 -40.957031 82.015625 -37.421875 90.515625 -37.421875 C 98.921875 -37.421875 104.859375 -40.957031 108.328125 -48.03125 C 111.796875 -55.101562 113.53125 -65.382812 113.53125 -78.875 C 113.53125 -92.269531 111.773438 -102.382812 108.265625 -109.21875 C 104.753906 -116.0625 98.742188 -119.484375 90.234375 -119.484375 C 81.921875 -119.484375 75.960938 -116.085938 72.359375 -109.296875 C 68.753906 -102.503906 66.953125 -92.363281 66.953125 -78.875 Z M 66.953125 -78.875" transform="translate(3818.266 1941.4)"/></g></g></g></svg>